<svg baseProfile="full" height="150px" version="1.1" viewBox="0 0 450 150" width="450px" xml:space="preserve" xmlns="http://www.w3.org/2000/svg" xmlns:rdkit="http://www.rdkit.org/xml" xmlns:xlink="http://www.w3.org/1999/xlink">
<!-- END OF HEADER -->
<rect height="150" style="opacity:1.0;fill:#FFFFFF;stroke:none" width="450" x="0" y="0"> </rect>
<path class="bond-0" d="M 135.26,72.437 L 133.428,80.6443" style="fill:none;fill-rule:evenodd;stroke:#0000FF;stroke-width:2.0px;stroke-linecap:butt;stroke-linejoin:miter;stroke-opacity:1"/>
<path class="bond-0" d="M 133.428,80.6443 L 131.597,88.8517" style="fill:none;fill-rule:evenodd;stroke:#000000;stroke-width:2.0px;stroke-linecap:butt;stroke-linejoin:miter;stroke-opacity:1"/>
<path class="bond-1" d="M 139.954,67.3206 L 149.333,66.6163" style="fill:none;fill-rule:evenodd;stroke:#0000FF;stroke-width:2.0px;stroke-linecap:butt;stroke-linejoin:miter;stroke-opacity:1"/>
<path class="bond-1" d="M 149.333,66.6163 L 158.713,65.9121" style="fill:none;fill-rule:evenodd;stroke:#000000;stroke-width:2.0px;stroke-linecap:butt;stroke-linejoin:miter;stroke-opacity:1"/>
<path class="bond-20" d="M 132.626,63.1097 L 129.845,59.7529" style="fill:none;fill-rule:evenodd;stroke:#0000FF;stroke-width:2.0px;stroke-linecap:butt;stroke-linejoin:miter;stroke-opacity:1"/>
<path class="bond-20" d="M 129.845,59.7529 L 127.063,56.3961" style="fill:none;fill-rule:evenodd;stroke:#000000;stroke-width:2.0px;stroke-linecap:butt;stroke-linejoin:miter;stroke-opacity:1"/>
<path class="bond-2" d="M 133.638,95.6127 L 139.084,99.4826" style="fill:none;fill-rule:evenodd;stroke:#000000;stroke-width:2.0px;stroke-linecap:butt;stroke-linejoin:miter;stroke-opacity:1"/>
<path class="bond-2" d="M 139.084,99.4826 L 144.529,103.352" style="fill:none;fill-rule:evenodd;stroke:#0000FF;stroke-width:2.0px;stroke-linecap:butt;stroke-linejoin:miter;stroke-opacity:1"/>
<path class="bond-2" d="M 138.582,92.1154 L 142.394,94.8244" style="fill:none;fill-rule:evenodd;stroke:#000000;stroke-width:2.0px;stroke-linecap:butt;stroke-linejoin:miter;stroke-opacity:1"/>
<path class="bond-2" d="M 142.394,94.8244 L 146.206,97.5333" style="fill:none;fill-rule:evenodd;stroke:#0000FF;stroke-width:2.0px;stroke-linecap:butt;stroke-linejoin:miter;stroke-opacity:1"/>
<path class="bond-21" d="M 120.759,96.8248 L 114.071,99.1342" style="fill:none;fill-rule:evenodd;stroke:#000000;stroke-width:2.0px;stroke-linecap:butt;stroke-linejoin:miter;stroke-opacity:1"/>
<path class="bond-3" d="M 154.574,104.795 L 161.001,99.3912" style="fill:none;fill-rule:evenodd;stroke:#0000FF;stroke-width:2.0px;stroke-linecap:butt;stroke-linejoin:miter;stroke-opacity:1"/>
<path class="bond-3" d="M 161.001,99.3912 L 167.428,93.987" style="fill:none;fill-rule:evenodd;stroke:#000000;stroke-width:2.0px;stroke-linecap:butt;stroke-linejoin:miter;stroke-opacity:1"/>
<path class="bond-4" d="M 180.81,92.4346 L 188.05,93.5703" style="fill:none;fill-rule:evenodd;stroke:#000000;stroke-width:2.0px;stroke-linecap:butt;stroke-linejoin:miter;stroke-opacity:1"/>
<path class="bond-5" d="M 169.451,86.1498 L 164.025,70.3725" style="fill:none;fill-rule:evenodd;stroke:#000000;stroke-width:2.0px;stroke-linecap:butt;stroke-linejoin:miter;stroke-opacity:1"/>
<path class="bond-5" d="M 163.233,85.6417 L 159.435,74.5976" style="fill:none;fill-rule:evenodd;stroke:#000000;stroke-width:2.0px;stroke-linecap:butt;stroke-linejoin:miter;stroke-opacity:1"/>
<path class="bond-6" d="M 198.165,101.22 L 201.371,106.901" style="fill:none;fill-rule:evenodd;stroke:#000000;stroke-width:2.0px;stroke-linecap:butt;stroke-linejoin:miter;stroke-opacity:1"/>
<path class="bond-6" d="M 201.371,106.901 L 204.576,112.582" style="fill:none;fill-rule:evenodd;stroke:#FF0000;stroke-width:2.0px;stroke-linecap:butt;stroke-linejoin:miter;stroke-opacity:1"/>
<path class="bond-6" d="M 203.142,98.4115 L 206.348,104.093" style="fill:none;fill-rule:evenodd;stroke:#000000;stroke-width:2.0px;stroke-linecap:butt;stroke-linejoin:miter;stroke-opacity:1"/>
<path class="bond-6" d="M 206.348,104.093 L 209.553,109.774" style="fill:none;fill-rule:evenodd;stroke:#FF0000;stroke-width:2.0px;stroke-linecap:butt;stroke-linejoin:miter;stroke-opacity:1"/>
<path class="bond-7" d="M 200.738,90.4636 L 204.769,83.5578" style="fill:none;fill-rule:evenodd;stroke:#000000;stroke-width:2.0px;stroke-linecap:butt;stroke-linejoin:miter;stroke-opacity:1"/>
<path class="bond-7" d="M 204.769,83.5578 L 208.801,76.6519" style="fill:none;fill-rule:evenodd;stroke:#0000FF;stroke-width:2.0px;stroke-linecap:butt;stroke-linejoin:miter;stroke-opacity:1"/>
<path class="bond-8" d="M 209.432,67.3719 L 206.177,60.0505" style="fill:none;fill-rule:evenodd;stroke:#0000FF;stroke-width:2.0px;stroke-linecap:butt;stroke-linejoin:miter;stroke-opacity:1"/>
<path class="bond-8" d="M 206.177,60.0505 L 202.922,52.7292" style="fill:none;fill-rule:evenodd;stroke:#000000;stroke-width:2.0px;stroke-linecap:butt;stroke-linejoin:miter;stroke-opacity:1"/>
<path class="bond-22" d="M 221.455,72.8363 L 224.653,73.0964" style="fill:none;fill-rule:evenodd;stroke:#0000FF;stroke-width:2.0px;stroke-linecap:butt;stroke-linejoin:miter;stroke-opacity:1"/>
<path class="bond-22" d="M 224.653,73.0964 L 227.851,73.3566" style="fill:none;fill-rule:evenodd;stroke:#000000;stroke-width:2.0px;stroke-linecap:butt;stroke-linejoin:miter;stroke-opacity:1"/>
<path class="bond-9" d="M 204.197,44.0823 L 208.921,38.3635" style="fill:none;fill-rule:evenodd;stroke:#000000;stroke-width:2.0px;stroke-linecap:butt;stroke-linejoin:miter;stroke-opacity:1"/>
<path class="bond-9" d="M 208.921,38.3635 L 213.646,32.6447" style="fill:none;fill-rule:evenodd;stroke:#0000FF;stroke-width:2.0px;stroke-linecap:butt;stroke-linejoin:miter;stroke-opacity:1"/>
<path class="bond-10" d="M 191.104,46.4278 L 185.119,45.3963" style="fill:none;fill-rule:evenodd;stroke:#000000;stroke-width:2.0px;stroke-linecap:butt;stroke-linejoin:miter;stroke-opacity:1"/>
<path class="bond-10" d="M 185.119,45.3963 L 179.134,44.3648" style="fill:none;fill-rule:evenodd;stroke:#0000FF;stroke-width:2.0px;stroke-linecap:butt;stroke-linejoin:miter;stroke-opacity:1"/>
<path class="bond-10" d="M 188.338,51.75 L 184.149,51.028" style="fill:none;fill-rule:evenodd;stroke:#000000;stroke-width:2.0px;stroke-linecap:butt;stroke-linejoin:miter;stroke-opacity:1"/>
<path class="bond-10" d="M 184.149,51.028 L 179.959,50.3059" style="fill:none;fill-rule:evenodd;stroke:#0000FF;stroke-width:2.0px;stroke-linecap:butt;stroke-linejoin:miter;stroke-opacity:1"/>
<path class="bond-23" d="M 215.211,23.8337 L 213.303,19.5948" style="fill:none;fill-rule:evenodd;stroke:#0000FF;stroke-width:2.0px;stroke-linecap:butt;stroke-linejoin:miter;stroke-opacity:1"/>
<path class="bond-23" d="M 213.303,19.5948 L 211.395,15.3559" style="fill:none;fill-rule:evenodd;stroke:#000000;stroke-width:2.0px;stroke-linecap:butt;stroke-linejoin:miter;stroke-opacity:1"/>
<path class="bond-24" d="M 227.2,29.4764 L 230.093,29.8144" style="fill:none;fill-rule:evenodd;stroke:#0000FF;stroke-width:2.0px;stroke-linecap:butt;stroke-linejoin:miter;stroke-opacity:1"/>
<path class="bond-24" d="M 230.093,29.8144 L 232.987,30.1524" style="fill:none;fill-rule:evenodd;stroke:#000000;stroke-width:2.0px;stroke-linecap:butt;stroke-linejoin:miter;stroke-opacity:1"/>
<path class="bond-11" d="M 172.947,48.6403 L 169.097,54.842" style="fill:none;fill-rule:evenodd;stroke:#0000FF;stroke-width:2.0px;stroke-linecap:butt;stroke-linejoin:miter;stroke-opacity:1"/>
<path class="bond-11" d="M 169.097,54.842 L 165.247,61.0437" style="fill:none;fill-rule:evenodd;stroke:#000000;stroke-width:2.0px;stroke-linecap:butt;stroke-linejoin:miter;stroke-opacity:1"/>
<path class="bond-12" d="M 303.214,59.1423 L 293.395,58.0283" style="fill:none;fill-rule:evenodd;stroke:#0000FF;stroke-width:2.0px;stroke-linecap:butt;stroke-linejoin:miter;stroke-opacity:1"/>
<path class="bond-12" d="M 293.395,58.0283 L 283.575,56.9144" style="fill:none;fill-rule:evenodd;stroke:#000000;stroke-width:2.0px;stroke-linecap:butt;stroke-linejoin:miter;stroke-opacity:1"/>
<path class="bond-13" d="M 309.268,64.2827 L 312.683,71.2435" style="fill:none;fill-rule:evenodd;stroke:#0000FF;stroke-width:2.0px;stroke-linecap:butt;stroke-linejoin:miter;stroke-opacity:1"/>
<path class="bond-13" d="M 312.683,71.2435 L 316.098,78.2043" style="fill:none;fill-rule:evenodd;stroke:#000000;stroke-width:2.0px;stroke-linecap:butt;stroke-linejoin:miter;stroke-opacity:1"/>
<path class="bond-25" d="M 309.791,55.0618 L 312.107,51.3823" style="fill:none;fill-rule:evenodd;stroke:#0000FF;stroke-width:2.0px;stroke-linecap:butt;stroke-linejoin:miter;stroke-opacity:1"/>
<path class="bond-25" d="M 312.107,51.3823 L 314.424,47.7029" style="fill:none;fill-rule:evenodd;stroke:#000000;stroke-width:2.0px;stroke-linecap:butt;stroke-linejoin:miter;stroke-opacity:1"/>
<path class="bond-14" d="M 281.06,50.8024 L 278.574,44.5689" style="fill:none;fill-rule:evenodd;stroke:#000000;stroke-width:2.0px;stroke-linecap:butt;stroke-linejoin:miter;stroke-opacity:1"/>
<path class="bond-14" d="M 278.574,44.5689 L 276.088,38.3354" style="fill:none;fill-rule:evenodd;stroke:#FF0000;stroke-width:2.0px;stroke-linecap:butt;stroke-linejoin:miter;stroke-opacity:1"/>
<path class="bond-14" d="M 275.752,52.9194 L 273.266,46.6859" style="fill:none;fill-rule:evenodd;stroke:#000000;stroke-width:2.0px;stroke-linecap:butt;stroke-linejoin:miter;stroke-opacity:1"/>
<path class="bond-14" d="M 273.266,46.6859 L 270.78,40.4524" style="fill:none;fill-rule:evenodd;stroke:#FF0000;stroke-width:2.0px;stroke-linecap:butt;stroke-linejoin:miter;stroke-opacity:1"/>
<path class="bond-15" d="M 277.097,61.2777 L 273.005,67.3832" style="fill:none;fill-rule:evenodd;stroke:#000000;stroke-width:2.0px;stroke-linecap:butt;stroke-linejoin:miter;stroke-opacity:1"/>
<path class="bond-15" d="M 273.005,67.3832 L 268.913,73.4886" style="fill:none;fill-rule:evenodd;stroke:#0000FF;stroke-width:2.0px;stroke-linecap:butt;stroke-linejoin:miter;stroke-opacity:1"/>
<path class="bond-16" d="M 268.077,82.7223 L 271.325,89.6755" style="fill:none;fill-rule:evenodd;stroke:#0000FF;stroke-width:2.0px;stroke-linecap:butt;stroke-linejoin:miter;stroke-opacity:1"/>
<path class="bond-16" d="M 271.325,89.6755 L 274.572,96.6287" style="fill:none;fill-rule:evenodd;stroke:#000000;stroke-width:2.0px;stroke-linecap:butt;stroke-linejoin:miter;stroke-opacity:1"/>
<path class="bond-16" d="M 274.229,82.39 L 276.503,87.2572" style="fill:none;fill-rule:evenodd;stroke:#0000FF;stroke-width:2.0px;stroke-linecap:butt;stroke-linejoin:miter;stroke-opacity:1"/>
<path class="bond-16" d="M 276.503,87.2572 L 278.776,92.1244" style="fill:none;fill-rule:evenodd;stroke:#000000;stroke-width:2.0px;stroke-linecap:butt;stroke-linejoin:miter;stroke-opacity:1"/>
<path class="bond-17" d="M 273.098,105.863 L 268.871,111.444" style="fill:none;fill-rule:evenodd;stroke:#000000;stroke-width:2.0px;stroke-linecap:butt;stroke-linejoin:miter;stroke-opacity:1"/>
<path class="bond-17" d="M 268.871,111.444 L 264.643,117.024" style="fill:none;fill-rule:evenodd;stroke:#0000FF;stroke-width:2.0px;stroke-linecap:butt;stroke-linejoin:miter;stroke-opacity:1"/>
<path class="bond-18" d="M 280.104,101.534 L 300.319,103.874" style="fill:none;fill-rule:evenodd;stroke:#000000;stroke-width:2.0px;stroke-linecap:butt;stroke-linejoin:miter;stroke-opacity:1"/>
<path class="bond-26" d="M 245.634,119.687 L 245,119.619" style="fill:none;fill-rule:evenodd;stroke:#0000FF;stroke-width:2.0px;stroke-linecap:butt;stroke-linejoin:miter;stroke-opacity:1"/>
<path class="bond-26" d="M 245,119.619 L 244.366,119.551" style="fill:none;fill-rule:evenodd;stroke:#000000;stroke-width:2.0px;stroke-linecap:butt;stroke-linejoin:miter;stroke-opacity:1"/>
<path class="bond-27" d="M 263.394,126.035 L 265.279,130.34" style="fill:none;fill-rule:evenodd;stroke:#0000FF;stroke-width:2.0px;stroke-linecap:butt;stroke-linejoin:miter;stroke-opacity:1"/>
<path class="bond-27" d="M 265.279,130.34 L 267.165,134.645" style="fill:none;fill-rule:evenodd;stroke:#000000;stroke-width:2.0px;stroke-linecap:butt;stroke-linejoin:miter;stroke-opacity:1"/>
<path class="bond-19" d="M 307.197,99.5675 L 315.229,87.5099" style="fill:none;fill-rule:evenodd;stroke:#000000;stroke-width:2.0px;stroke-linecap:butt;stroke-linejoin:miter;stroke-opacity:1"/>
<path class="bond-19" d="M 303.646,94.5907 L 309.268,86.1503" style="fill:none;fill-rule:evenodd;stroke:#000000;stroke-width:2.0px;stroke-linecap:butt;stroke-linejoin:miter;stroke-opacity:1"/>
<path class="bond-28" d="M 306.244,109.017 L 310.763,118.687" style="fill:none;fill-rule:evenodd;stroke:#000000;stroke-width:2.0px;stroke-linecap:butt;stroke-linejoin:miter;stroke-opacity:1"/>
<path class="bond-29" d="M 333.92,82.9902 L 335.85,83.0123" style="fill:none;fill-rule:evenodd;stroke:#000000;stroke-width:2.0px;stroke-linecap:butt;stroke-linejoin:miter;stroke-opacity:1"/>
<path class="atom-0" d="M 127.826 63.5916 L 130.477 67.8776 Q 130.74 68.3005, 131.163 69.0663 Q 131.586 69.832, 131.609 69.8777 L 131.609 63.5916 L 132.683 63.5916 L 132.683 71.6836 L 131.575 71.6836 L 128.729 66.9975 Q 128.397 66.4489, 128.043 65.8203 Q 127.7 65.1917, 127.597 64.9974 L 127.597 71.6836 L 126.546 71.6836 L 126.546 63.5916 L 127.826 63.5916 " fill="#0000FF"/>
<path class="atom-0" d="M 136.341 71.775 Q 134.855 71.775, 134.112 70.6778 Q 133.38 69.5806, 133.38 67.6262 Q 133.38 65.6717, 134.112 64.586 Q 134.843 63.5002, 136.341 63.5002 Q 137.838 63.5002, 138.569 64.586 Q 139.301 65.6717, 139.301 67.6262 Q 139.301 69.5806, 138.558 70.6778 Q 137.826 71.775, 136.341 71.775 M 136.341 70.8607 Q 137.221 70.8607, 137.689 70.0492 Q 138.158 69.2263, 138.158 67.6262 Q 138.158 66.0375, 137.689 65.226 Q 137.221 64.4145, 136.341 64.4145 Q 135.472 64.4145, 134.992 65.226 Q 134.523 66.0375, 134.523 67.6262 Q 134.523 69.2263, 134.992 70.0492 Q 135.472 70.8607, 136.341 70.8607 " fill="#0000FF"/>
<path class="atom-1" d="M 121.277 93.4698 Q 121.277 91.4583, 122.214 90.4068 Q 123.163 89.3438, 124.957 89.3438 Q 126.626 89.3438, 127.517 90.5211 L 126.763 91.1383 Q 126.111 90.281, 124.957 90.281 Q 123.734 90.281, 123.083 91.104 Q 122.442 91.9154, 122.442 93.4698 Q 122.442 95.0699, 123.105 95.8929 Q 123.78 96.7158, 125.083 96.7158 Q 125.974 96.7158, 127.014 96.1786 L 127.334 97.0358 Q 126.911 97.3101, 126.271 97.4701 Q 125.631 97.6301, 124.923 97.6301 Q 123.163 97.6301, 122.214 96.5558 Q 121.277 95.4814, 121.277 93.4698 " fill="#000000"/>
<path class="atom-1" d="M 128.58 96.6129 L 130.352 96.6129 L 130.352 90.5668 L 128.397 91.1725 L 128.134 90.4982 L 130.614 89.3896 L 131.426 89.5267 L 131.426 96.6129 L 133.015 96.6129 L 133.015 97.5273 L 128.58 97.5273 L 128.58 96.6129 " fill="#000000"/>
<path class="atom-2" d="M 143.034 103.882 L 145.686 108.168 Q 145.949 108.591, 146.372 109.357 Q 146.795 110.122, 146.817 110.168 L 146.817 103.882 L 147.892 103.882 L 147.892 111.974 L 146.783 111.974 L 143.937 107.288 Q 143.606 106.739, 143.252 106.111 Q 142.909 105.482, 142.806 105.288 L 142.806 111.974 L 141.754 111.974 L 141.754 103.882 L 143.034 103.882 " fill="#0000FF"/>
<path class="atom-2" d="M 148.486 105.414 Q 148.783 104.648, 149.492 104.225 Q 150.201 103.791, 151.184 103.791 Q 152.406 103.791, 153.092 104.453 Q 153.778 105.116, 153.778 106.294 Q 153.778 107.494, 152.886 108.614 Q 152.006 109.734, 150.178 111.06 L 153.915 111.06 L 153.915 111.974 L 148.463 111.974 L 148.463 111.208 Q 149.972 110.134, 150.863 109.334 Q 151.766 108.534, 152.201 107.814 Q 152.635 107.094, 152.635 106.351 Q 152.635 105.574, 152.246 105.139 Q 151.858 104.705, 151.184 104.705 Q 150.532 104.705, 150.098 104.968 Q 149.663 105.231, 149.355 105.814 L 148.486 105.414 " fill="#0000FF"/>
<path class="atom-3" d="M 167.968 90.944 Q 167.968 88.9324, 168.905 87.8809 Q 169.853 86.818, 171.648 86.818 Q 173.316 86.818, 174.208 87.9952 L 173.454 88.6124 Q 172.802 87.7552, 171.648 87.7552 Q 170.425 87.7552, 169.773 88.5781 Q 169.133 89.3896, 169.133 90.944 Q 169.133 92.5441, 169.796 93.367 Q 170.471 94.1899, 171.773 94.1899 Q 172.665 94.1899, 173.705 93.6527 L 174.025 94.5099 Q 173.602 94.7842, 172.962 94.9442 Q 172.322 95.1042, 171.613 95.1042 Q 169.853 95.1042, 168.905 94.0299 Q 167.968 92.9555, 167.968 90.944 " fill="#000000"/>
<path class="atom-3" d="M 178.574 90.7382 Q 179.363 90.9668, 179.74 91.4811 Q 180.128 91.984, 180.128 92.7841 Q 180.128 93.4698, 179.785 94.007 Q 179.443 94.5328, 178.814 94.8299 Q 178.185 95.1157, 177.362 95.1157 Q 176.494 95.1157, 175.842 94.8185 Q 175.202 94.5099, 174.688 93.8927 L 175.339 93.2298 Q 175.842 93.7784, 176.265 93.9956 Q 176.688 94.2013, 177.362 94.2013 Q 178.094 94.2013, 178.54 93.8127 Q 178.985 93.4127, 178.985 92.7726 Q 178.985 91.9497, 178.517 91.584 Q 178.06 91.2068, 177.065 91.2068 L 176.482 91.2068 L 176.482 90.3839 L 176.997 90.3839 Q 177.877 90.3725, 178.345 89.9953 Q 178.814 89.6067, 178.814 88.8867 Q 178.814 88.3609, 178.425 88.0523 Q 178.037 87.7323, 177.374 87.7323 Q 176.7 87.7323, 176.277 87.9723 Q 175.865 88.2123, 175.545 88.8181 L 174.757 88.3952 Q 175.042 87.7209, 175.728 87.2751 Q 176.414 86.818, 177.374 86.818 Q 178.563 86.818, 179.26 87.378 Q 179.957 87.938, 179.957 88.8867 Q 179.957 89.5381, 179.603 90.0067 Q 179.248 90.4753, 178.574 90.7382 " fill="#000000"/>
<path class="atom-4" d="M 188.485 95.1671 Q 188.485 93.1555, 189.422 92.104 Q 190.371 91.0411, 192.165 91.0411 Q 193.834 91.0411, 194.726 92.2183 L 193.971 92.8355 Q 193.32 91.9783, 192.165 91.9783 Q 190.942 91.9783, 190.291 92.8012 Q 189.651 93.6127, 189.651 95.1671 Q 189.651 96.7672, 190.314 97.5901 Q 190.988 98.413, 192.291 98.413 Q 193.183 98.413, 194.223 97.8759 L 194.543 98.7331 Q 194.12 99.0074, 193.48 99.1674 Q 192.84 99.3274, 192.131 99.3274 Q 190.371 99.3274, 189.422 98.253 Q 188.485 97.1787, 188.485 95.1671 " fill="#000000"/>
<path class="atom-4" d="M 200.326 96.4472 L 201.297 96.4472 L 201.297 97.3615 L 200.326 97.3615 L 200.326 99.2245 L 199.252 99.2245 L 199.252 97.3615 L 195.068 97.3615 L 195.068 96.6415 L 198.612 91.1325 L 200.326 91.1325 L 200.326 96.4472 M 196.394 96.4472 L 199.252 96.4472 L 199.252 91.864 L 196.394 96.4472 " fill="#000000"/>
<path class="atom-5" d="M 205.917 115.749 Q 205.917 113.806, 206.877 112.721 Q 207.837 111.635, 209.631 111.635 Q 211.426 111.635, 212.386 112.721 Q 213.346 113.806, 213.346 115.749 Q 213.346 117.715, 212.374 118.835 Q 211.403 119.944, 209.631 119.944 Q 207.848 119.944, 206.877 118.835 Q 205.917 117.727, 205.917 115.749 M 209.631 119.03 Q 210.866 119.03, 211.529 118.207 Q 212.203 117.372, 212.203 115.749 Q 212.203 114.161, 211.529 113.361 Q 210.866 112.549, 209.631 112.549 Q 208.397 112.549, 207.723 113.349 Q 207.06 114.149, 207.06 115.749 Q 207.06 117.384, 207.723 118.207 Q 208.397 119.03, 209.631 119.03 " fill="#FF0000"/>
<path class="atom-5" d="M 216.809 114.755 Q 217.518 114.755, 218.1 115.064 Q 218.683 115.361, 219.015 115.932 Q 219.346 116.492, 219.346 117.258 Q 219.346 118.092, 218.935 118.698 Q 218.535 119.293, 217.872 119.601 Q 217.209 119.91, 216.455 119.91 Q 215.712 119.91, 215.026 119.635 Q 214.34 119.361, 213.872 118.835 L 214.557 118.127 Q 214.935 118.538, 215.449 118.767 Q 215.963 118.984, 216.489 118.984 Q 217.209 118.984, 217.7 118.538 Q 218.203 118.092, 218.203 117.281 Q 218.203 116.424, 217.7 116.024 Q 217.209 115.612, 216.42 115.612 Q 215.712 115.612, 214.923 115.921 L 214.295 115.624 L 214.683 111.726 L 218.843 111.726 L 218.729 112.641 L 215.62 112.641 L 215.38 115.041 Q 216.1 114.755, 216.809 114.755 " fill="#FF0000"/>
<path class="atom-6" d="M 209.713 68.0262 L 212.365 72.3122 Q 212.628 72.7351, 213.051 73.5009 Q 213.473 74.2666, 213.496 74.3123 L 213.496 68.0262 L 214.571 68.0262 L 214.571 76.1182 L 213.462 76.1182 L 210.616 71.4321 Q 210.285 70.8835, 209.93 70.2549 Q 209.588 69.6263, 209.485 69.432 L 209.485 76.1182 L 208.433 76.1182 L 208.433 68.0262 L 209.713 68.0262 " fill="#0000FF"/>
<path class="atom-6" d="M 218.514 71.0664 Q 219.222 71.0664, 219.783 71.375 Q 220.343 71.6836, 220.651 72.2436 Q 220.96 72.8037, 220.96 73.5123 Q 220.96 74.3009, 220.605 74.9181 Q 220.263 75.5238, 219.645 75.8667 Q 219.028 76.2096, 218.24 76.2096 Q 216.799 76.2096, 216.068 75.2381 Q 215.348 74.2552, 215.348 72.3122 Q 215.348 70.1635, 216.239 69.0548 Q 217.142 67.9348, 218.868 67.9348 Q 219.371 67.9348, 219.794 68.049 Q 220.228 68.1633, 220.64 68.4034 L 220.194 69.1691 Q 219.6 68.8491, 218.88 68.8491 Q 217.737 68.8491, 217.154 69.592 Q 216.571 70.3235, 216.502 71.8436 Q 216.914 71.4664, 217.428 71.2721 Q 217.954 71.0664, 218.514 71.0664 M 218.251 75.2724 Q 218.685 75.2724, 219.04 75.0438 Q 219.405 74.8152, 219.611 74.4152 Q 219.817 74.0152, 219.817 73.5237 Q 219.817 72.8037, 219.417 72.3922 Q 219.017 71.9807, 218.308 71.9807 Q 217.817 71.9807, 217.325 72.1865 Q 216.845 72.3808, 216.502 72.7237 Q 216.548 74.0609, 216.971 74.6666 Q 217.394 75.2724, 218.251 75.2724 " fill="#0000FF"/>
<path class="atom-7" d="M 191.737 48.1448 Q 191.737 46.1333, 192.674 45.0818 Q 193.623 44.0188, 195.417 44.0188 Q 197.086 44.0188, 197.977 45.1961 L 197.223 45.8132 Q 196.571 44.956, 195.417 44.956 Q 194.194 44.956, 193.543 45.7789 Q 192.903 46.5904, 192.903 48.1448 Q 192.903 49.7449, 193.565 50.5678 Q 194.24 51.3908, 195.543 51.3908 Q 196.434 51.3908, 197.474 50.8536 L 197.794 51.7108 Q 197.371 51.9851, 196.731 52.1451 Q 196.091 52.3051, 195.383 52.3051 Q 193.623 52.3051, 192.674 51.2308 Q 191.737 50.1564, 191.737 48.1448 " fill="#000000"/>
<path class="atom-7" d="M 202.423 45.0246 L 198.183 45.0246 L 198.183 44.1103 L 203.555 44.1103 L 203.555 44.9217 L 200.286 52.2022 L 199.189 52.2022 L 202.423 45.0246 " fill="#000000"/>
<path class="atom-8" d="M 215.437 24.3108 L 218.089 28.5968 Q 218.352 29.0197, 218.775 29.7855 Q 219.198 30.5512, 219.221 30.597 L 219.221 24.3108 L 220.295 24.3108 L 220.295 32.4028 L 219.186 32.4028 L 216.34 27.7168 Q 216.009 27.1681, 215.655 26.5395 Q 215.312 25.9109, 215.209 25.7166 L 215.209 32.4028 L 214.157 32.4028 L 214.157 24.3108 L 215.437 24.3108 " fill="#0000FF"/>
<path class="atom-8" d="M 225.13 28.1168 Q 225.872 28.4368, 226.295 28.9168 Q 226.718 29.3854, 226.718 30.1855 Q 226.718 30.8713, 226.364 31.4084 Q 226.01 31.9342, 225.37 32.2314 Q 224.741 32.5171, 223.907 32.5171 Q 222.558 32.5171, 221.781 31.8999 Q 221.004 31.2713, 221.004 30.1855 Q 221.004 29.5226, 221.346 29.0311 Q 221.689 28.5282, 222.398 28.1511 Q 221.872 27.8539, 221.586 27.4196 Q 221.301 26.9739, 221.301 26.2881 Q 221.301 25.3395, 221.986 24.7794 Q 222.684 24.2194, 223.861 24.2194 Q 225.038 24.2194, 225.724 24.7794 Q 226.421 25.3395, 226.421 26.2881 Q 226.421 26.8824, 226.09 27.3282 Q 225.77 27.7625, 225.13 28.1168 M 223.861 25.0766 Q 223.187 25.0766, 222.809 25.3966 Q 222.444 25.7166, 222.444 26.2881 Q 222.444 26.711, 222.695 26.9967 Q 222.947 27.271, 223.301 27.431 Q 223.667 27.591, 224.364 27.8311 Q 224.855 27.4882, 225.061 27.1224 Q 225.278 26.7567, 225.278 26.2881 Q 225.278 25.7166, 224.901 25.3966 Q 224.535 25.0766, 223.861 25.0766 M 223.907 31.6599 Q 224.661 31.6599, 225.118 31.2599 Q 225.575 30.8484, 225.575 30.1741 Q 225.575 29.7398, 225.335 29.4655 Q 225.095 29.1911, 224.73 29.0311 Q 224.375 28.8711, 223.735 28.6654 L 223.221 28.494 Q 222.649 28.8368, 222.398 29.2483 Q 222.146 29.6483, 222.146 30.1741 Q 222.146 30.8484, 222.627 31.2599 Q 223.107 31.6599, 223.907 31.6599 " fill="#0000FF"/>
<path class="atom-9" d="M 167.651 39.8147 L 170.303 44.1007 Q 170.566 44.5236, 170.989 45.2894 Q 171.412 46.0552, 171.434 46.1009 L 171.434 39.8147 L 172.509 39.8147 L 172.509 47.9067 L 171.4 47.9067 L 168.554 43.2207 Q 168.223 42.6721, 167.868 42.0435 Q 167.526 41.4148, 167.423 41.2205 L 167.423 47.9067 L 166.371 47.9067 L 166.371 39.8147 L 167.651 39.8147 " fill="#0000FF"/>
<path class="atom-9" d="M 175.858 39.7233 Q 177.298 39.7233, 178.018 40.7062 Q 178.749 41.6777, 178.749 43.6207 Q 178.749 45.7694, 177.846 46.8895 Q 176.955 47.9981, 175.229 47.9981 Q 174.726 47.9981, 174.292 47.8839 Q 173.869 47.7696, 173.457 47.5295 L 173.903 46.7638 Q 174.497 47.0838, 175.218 47.0838 Q 176.36 47.0838, 176.943 46.3523 Q 177.526 45.6094, 177.595 44.0893 Q 177.183 44.4665, 176.658 44.6722 Q 176.143 44.8665, 175.583 44.8665 Q 174.875 44.8665, 174.315 44.5579 Q 173.755 44.2493, 173.446 43.6893 Q 173.137 43.1292, 173.137 42.4206 Q 173.137 41.632, 173.48 41.0262 Q 173.835 40.4091, 174.452 40.0662 Q 175.069 39.7233, 175.858 39.7233 M 174.28 42.4092 Q 174.28 43.1292, 174.68 43.5407 Q 175.08 43.9522, 175.789 43.9522 Q 176.28 43.9522, 176.761 43.7579 Q 177.252 43.5521, 177.595 43.2092 Q 177.549 41.872, 177.126 41.2663 Q 176.703 40.6605, 175.846 40.6605 Q 175.412 40.6605, 175.046 40.8891 Q 174.692 41.1177, 174.486 41.5177 Q 174.28 41.9177, 174.28 42.4092 " fill="#0000FF"/>
<path class="atom-10" d="M 159.275 65.6698 Q 159.275 63.6583, 160.213 62.6068 Q 161.161 61.5438, 162.956 61.5438 Q 164.624 61.5438, 165.516 62.7211 L 164.762 63.3382 Q 164.11 62.481, 162.956 62.481 Q 161.733 62.481, 161.081 63.304 Q 160.441 64.1154, 160.441 65.6698 Q 160.441 67.2699, 161.104 68.0929 Q 161.779 68.9158, 163.081 68.9158 Q 163.973 68.9158, 165.013 68.3786 L 165.333 69.2358 Q 164.91 69.5101, 164.27 69.6701 Q 163.63 69.8301, 162.921 69.8301 Q 161.161 69.8301, 160.213 68.7558 Q 159.275 67.6814, 159.275 65.6698 " fill="#000000"/>
<path class="atom-10" d="M 166.579 68.8129 L 168.35 68.8129 L 168.35 62.7668 L 166.396 63.3725 L 166.133 62.6982 L 168.613 61.5896 L 169.425 61.7267 L 169.425 68.8129 L 171.013 68.8129 L 171.013 69.7273 L 166.579 69.7273 L 166.579 68.8129 " fill="#000000"/>
<path class="atom-10" d="M 174.671 69.8187 Q 173.185 69.8187, 172.442 68.7215 Q 171.711 67.6243, 171.711 65.6698 Q 171.711 63.7154, 172.442 62.6296 Q 173.174 61.5438, 174.671 61.5438 Q 176.168 61.5438, 176.9 62.6296 Q 177.631 63.7154, 177.631 65.6698 Q 177.631 67.6243, 176.888 68.7215 Q 176.157 69.8187, 174.671 69.8187 M 174.671 68.9043 Q 175.551 68.9043, 176.02 68.0929 Q 176.488 67.2699, 176.488 65.6698 Q 176.488 64.0812, 176.02 63.2697 Q 175.551 62.4582, 174.671 62.4582 Q 173.802 62.4582, 173.322 63.2697 Q 172.854 64.0812, 172.854 65.6698 Q 172.854 67.2699, 173.322 68.0929 Q 173.802 68.9043, 174.671 68.9043 " fill="#000000"/>
<path class="atom-11" d="M 305.165 55.5434 L 307.817 59.8294 Q 308.08 60.2523, 308.503 61.0181 Q 308.926 61.7839, 308.949 61.8296 L 308.949 55.5434 L 310.023 55.5434 L 310.023 63.6354 L 308.914 63.6354 L 306.068 58.9494 Q 305.737 58.4008, 305.383 57.7722 Q 305.04 57.1435, 304.937 56.9492 L 304.937 63.6354 L 303.885 63.6354 L 303.885 55.5434 L 305.165 55.5434 " fill="#0000FF"/>
<path class="atom-11" d="M 311.086 62.7211 L 312.857 62.7211 L 312.857 56.6749 L 310.903 57.2807 L 310.64 56.6064 L 313.12 55.4977 L 313.932 55.6349 L 313.932 62.7211 L 315.52 62.7211 L 315.52 63.6354 L 311.086 63.6354 L 311.086 62.7211 " fill="#0000FF"/>
<path class="atom-11" d="M 316.583 62.7211 L 318.355 62.7211 L 318.355 56.6749 L 316.401 57.2807 L 316.138 56.6064 L 318.618 55.4977 L 319.429 55.6349 L 319.429 62.7211 L 321.018 62.7211 L 321.018 63.6354 L 316.583 63.6354 L 316.583 62.7211 " fill="#0000FF"/>
<path class="atom-12" d="M 265.237 56.574 Q 265.237 54.5624, 266.174 53.5109 Q 267.123 52.448, 268.917 52.448 Q 270.586 52.448, 271.477 53.6252 L 270.723 54.2424 Q 270.072 53.3852, 268.917 53.3852 Q 267.694 53.3852, 267.043 54.2081 Q 266.403 55.0196, 266.403 56.574 Q 266.403 58.1741, 267.066 58.997 Q 267.74 59.8199, 269.043 59.8199 Q 269.935 59.8199, 270.975 59.2827 L 271.295 60.1399 Q 270.872 60.4142, 270.232 60.5742 Q 269.592 60.7343, 268.883 60.7343 Q 267.123 60.7343, 266.174 59.6599 Q 265.237 58.5855, 265.237 56.574 " fill="#000000"/>
<path class="atom-12" d="M 272.54 59.717 L 274.312 59.717 L 274.312 53.6709 L 272.358 54.2767 L 272.095 53.6023 L 274.575 52.4937 L 275.386 52.6308 L 275.386 59.717 L 276.975 59.717 L 276.975 60.6314 L 272.54 60.6314 L 272.54 59.717 " fill="#000000"/>
<path class="atom-12" d="M 277.569 54.0709 Q 277.866 53.3052, 278.575 52.8823 Q 279.284 52.448, 280.267 52.448 Q 281.49 52.448, 282.175 53.1109 Q 282.861 53.7738, 282.861 54.951 Q 282.861 56.1511, 281.97 57.2712 Q 281.09 58.3912, 279.261 59.717 L 282.998 59.717 L 282.998 60.6314 L 277.546 60.6314 L 277.546 59.8656 Q 279.055 58.7913, 279.947 57.9912 Q 280.85 57.1912, 281.284 56.4711 Q 281.718 55.7511, 281.718 55.0082 Q 281.718 54.231, 281.33 53.7966 Q 280.941 53.3623, 280.267 53.3623 Q 279.615 53.3623, 279.181 53.6252 Q 278.747 53.8881, 278.438 54.471 L 277.569 54.0709 " fill="#000000"/>
<path class="atom-13" d="M 255.446 34.7496 Q 255.446 32.8066, 256.406 31.7208 Q 257.366 30.6351, 259.16 30.6351 Q 260.955 30.6351, 261.915 31.7208 Q 262.875 32.8066, 262.875 34.7496 Q 262.875 36.7155, 261.903 37.8355 Q 260.932 38.9442, 259.16 38.9442 Q 257.377 38.9442, 256.406 37.8355 Q 255.446 36.7269, 255.446 34.7496 M 259.16 38.0298 Q 260.395 38.0298, 261.058 37.2069 Q 261.732 36.3726, 261.732 34.7496 Q 261.732 33.1609, 261.058 32.3609 Q 260.395 31.5494, 259.16 31.5494 Q 257.926 31.5494, 257.252 32.3495 Q 256.589 33.1495, 256.589 34.7496 Q 256.589 36.384, 257.252 37.2069 Q 257.926 38.0298, 259.16 38.0298 " fill="#FF0000"/>
<path class="atom-13" d="M 263.938 37.9041 L 265.709 37.9041 L 265.709 31.858 L 263.755 32.4638 L 263.492 31.7894 L 265.972 30.6808 L 266.784 30.8179 L 266.784 37.9041 L 268.373 37.9041 L 268.373 38.8185 L 263.938 38.8185 L 263.938 37.9041 " fill="#FF0000"/>
<path class="atom-13" d="M 272.739 34.5553 Q 273.527 34.7839, 273.904 35.2982 Q 274.293 35.8011, 274.293 36.6012 Q 274.293 37.2869, 273.95 37.8241 Q 273.607 38.3499, 272.979 38.647 Q 272.35 38.9328, 271.527 38.9328 Q 270.658 38.9328, 270.007 38.6356 Q 269.367 38.327, 268.853 37.7098 L 269.504 37.0469 Q 270.007 37.5955, 270.43 37.8127 Q 270.853 38.0184, 271.527 38.0184 Q 272.258 38.0184, 272.704 37.6298 Q 273.15 37.2298, 273.15 36.5898 Q 273.15 35.7668, 272.681 35.4011 Q 272.224 35.0239, 271.23 35.0239 L 270.647 35.0239 L 270.647 34.201 L 271.161 34.201 Q 272.041 34.1896, 272.51 33.8124 Q 272.979 33.4238, 272.979 32.7038 Q 272.979 32.178, 272.59 31.8694 Q 272.201 31.5494, 271.538 31.5494 Q 270.864 31.5494, 270.441 31.7894 Q 270.03 32.0294, 269.71 32.6352 L 268.921 32.2123 Q 269.207 31.538, 269.893 31.0922 Q 270.578 30.6351, 271.538 30.6351 Q 272.727 30.6351, 273.424 31.1951 Q 274.121 31.7551, 274.121 32.7038 Q 274.121 33.3552, 273.767 33.8238 Q 273.413 34.2924, 272.739 34.5553 " fill="#FF0000"/>
<path class="atom-14" d="M 252.067 73.9923 L 254.718 78.2783 Q 254.981 78.7012, 255.404 79.467 Q 255.827 80.2327, 255.85 80.2785 L 255.85 73.9923 L 256.924 73.9923 L 256.924 82.0843 L 255.815 82.0843 L 252.97 77.3983 Q 252.638 76.8497, 252.284 76.221 Q 251.941 75.5924, 251.838 75.3981 L 251.838 82.0843 L 250.787 82.0843 L 250.787 73.9923 L 252.067 73.9923 " fill="#0000FF"/>
<path class="atom-14" d="M 257.987 81.1699 L 259.759 81.1699 L 259.759 75.1238 L 257.804 75.7296 L 257.541 75.0552 L 260.021 73.9466 L 260.833 74.0837 L 260.833 81.1699 L 262.422 81.1699 L 262.422 82.0843 L 257.987 82.0843 L 257.987 81.1699 " fill="#0000FF"/>
<path class="atom-14" d="M 268.022 79.307 L 268.993 79.307 L 268.993 80.2213 L 268.022 80.2213 L 268.022 82.0843 L 266.948 82.0843 L 266.948 80.2213 L 262.764 80.2213 L 262.764 79.5013 L 266.308 73.9923 L 268.022 73.9923 L 268.022 79.307 M 264.09 79.307 L 266.948 79.307 L 266.948 74.7238 L 264.09 79.307 " fill="#0000FF"/>
<path class="atom-15" d="M 261.677 101.171 Q 261.677 99.1598, 262.614 98.1083 Q 263.563 97.0453, 265.357 97.0453 Q 267.026 97.0453, 267.917 98.2225 L 267.163 98.8397 Q 266.511 97.9825, 265.357 97.9825 Q 264.134 97.9825, 263.483 98.8054 Q 262.843 99.6169, 262.843 101.171 Q 262.843 102.771, 263.506 103.594 Q 264.18 104.417, 265.483 104.417 Q 266.374 104.417, 267.414 103.88 L 267.734 104.737 Q 267.311 105.012, 266.671 105.172 Q 266.031 105.332, 265.323 105.332 Q 263.563 105.332, 262.614 104.257 Q 261.677 103.183, 261.677 101.171 " fill="#000000"/>
<path class="atom-15" d="M 268.98 104.314 L 270.752 104.314 L 270.752 98.2683 L 268.797 98.874 L 268.534 98.1997 L 271.015 97.091 L 271.826 97.2282 L 271.826 104.314 L 273.415 104.314 L 273.415 105.229 L 268.98 105.229 L 268.98 104.314 " fill="#000000"/>
<path class="atom-15" d="M 276.878 100.166 Q 277.586 100.166, 278.169 100.474 Q 278.752 100.771, 279.084 101.343 Q 279.415 101.903, 279.415 102.669 Q 279.415 103.503, 279.004 104.109 Q 278.604 104.703, 277.941 105.012 Q 277.278 105.32, 276.524 105.32 Q 275.781 105.32, 275.095 105.046 Q 274.409 104.772, 273.941 104.246 L 274.626 103.537 Q 275.003 103.949, 275.518 104.177 Q 276.032 104.394, 276.558 104.394 Q 277.278 104.394, 277.769 103.949 Q 278.272 103.503, 278.272 102.691 Q 278.272 101.834, 277.769 101.434 Q 277.278 101.023, 276.489 101.023 Q 275.781 101.023, 274.992 101.331 L 274.363 101.034 L 274.752 97.1368 L 278.912 97.1368 L 278.798 98.0511 L 275.689 98.0511 L 275.449 100.451 Q 276.169 100.166, 276.878 100.166 " fill="#000000"/>
<path class="atom-16" d="M 247.413 117.371 L 250.065 121.657 Q 250.327 122.079, 250.75 122.845 Q 251.173 123.611, 251.196 123.657 L 251.196 117.371 L 252.27 117.371 L 252.27 125.463 L 251.162 125.463 L 248.316 120.776 Q 247.984 120.228, 247.63 119.599 Q 247.287 118.971, 247.184 118.776 L 247.184 125.463 L 246.133 125.463 L 246.133 117.371 L 247.413 117.371 " fill="#0000FF"/>
<path class="atom-16" d="M 253.333 124.548 L 255.105 124.548 L 255.105 118.502 L 253.151 119.108 L 252.888 118.433 L 255.368 117.325 L 256.179 117.462 L 256.179 124.548 L 257.768 124.548 L 257.768 125.463 L 253.333 125.463 L 253.333 124.548 " fill="#0000FF"/>
<path class="atom-16" d="M 261.711 120.411 Q 262.42 120.411, 262.98 120.719 Q 263.54 121.028, 263.848 121.588 Q 264.157 122.148, 264.157 122.857 Q 264.157 123.645, 263.803 124.262 Q 263.46 124.868, 262.843 125.211 Q 262.225 125.554, 261.437 125.554 Q 259.997 125.554, 259.265 124.582 Q 258.545 123.6, 258.545 121.657 Q 258.545 119.508, 259.437 118.399 Q 260.34 117.279, 262.065 117.279 Q 262.568 117.279, 262.991 117.393 Q 263.425 117.508, 263.837 117.748 L 263.391 118.513 Q 262.797 118.193, 262.077 118.193 Q 260.934 118.193, 260.351 118.936 Q 259.768 119.668, 259.7 121.188 Q 260.111 120.811, 260.625 120.616 Q 261.151 120.411, 261.711 120.411 M 261.448 124.617 Q 261.883 124.617, 262.237 124.388 Q 262.603 124.16, 262.808 123.76 Q 263.014 123.36, 263.014 122.868 Q 263.014 122.148, 262.614 121.737 Q 262.214 121.325, 261.505 121.325 Q 261.014 121.325, 260.522 121.531 Q 260.042 121.725, 259.7 122.068 Q 259.745 123.405, 260.168 124.011 Q 260.591 124.617, 261.448 124.617 " fill="#0000FF"/>
<path class="atom-17" d="M 300.921 104.339 Q 300.921 102.328, 301.859 101.276 Q 302.807 100.213, 304.602 100.213 Q 306.27 100.213, 307.162 101.39 L 306.407 102.008 Q 305.756 101.15, 304.602 101.15 Q 303.379 101.15, 302.727 101.973 Q 302.087 102.785, 302.087 104.339 Q 302.087 105.939, 302.75 106.762 Q 303.424 107.585, 304.727 107.585 Q 305.619 107.585, 306.659 107.048 L 306.979 107.905 Q 306.556 108.179, 305.916 108.339 Q 305.276 108.499, 304.567 108.499 Q 302.807 108.499, 301.859 107.425 Q 300.921 106.351, 300.921 104.339 " fill="#000000"/>
<path class="atom-17" d="M 308.225 107.482 L 309.996 107.482 L 309.996 101.436 L 308.042 102.042 L 307.779 101.368 L 310.259 100.259 L 311.071 100.396 L 311.071 107.482 L 312.659 107.482 L 312.659 108.397 L 308.225 108.397 L 308.225 107.482 " fill="#000000"/>
<path class="atom-17" d="M 317.105 101.219 L 312.865 101.219 L 312.865 100.305 L 318.237 100.305 L 318.237 101.116 L 314.968 108.397 L 313.871 108.397 L 317.105 101.219 " fill="#000000"/>
<path class="atom-18" d="M 315.239 82.8463 Q 315.239 80.8347, 316.176 79.7832 Q 317.124 78.7203, 318.919 78.7203 Q 320.588 78.7203, 321.479 79.8975 L 320.725 80.5147 Q 320.073 79.6575, 318.919 79.6575 Q 317.696 79.6575, 317.044 80.4804 Q 316.404 81.2919, 316.404 82.8463 Q 316.404 84.4464, 317.067 85.2693 Q 317.742 86.0922, 319.045 86.0922 Q 319.936 86.0922, 320.976 85.555 L 321.296 86.4122 Q 320.873 86.6865, 320.233 86.8465 Q 319.593 87.0065, 318.885 87.0065 Q 317.124 87.0065, 316.176 85.9322 Q 315.239 84.8578, 315.239 82.8463 " fill="#000000"/>
<path class="atom-18" d="M 322.542 85.9893 L 324.313 85.9893 L 324.313 79.9432 L 322.359 80.549 L 322.096 79.8746 L 324.576 78.766 L 325.388 78.9031 L 325.388 85.9893 L 326.977 85.9893 L 326.977 86.9037 L 322.542 86.9037 L 322.542 85.9893 " fill="#000000"/>
<path class="atom-18" d="M 331.811 82.6177 Q 332.554 82.9377, 332.977 83.4177 Q 333.4 83.8863, 333.4 84.6864 Q 333.4 85.3721, 333.046 85.9093 Q 332.691 86.4351, 332.051 86.7322 Q 331.423 87.018, 330.588 87.018 Q 329.24 87.018, 328.462 86.4008 Q 327.685 85.7722, 327.685 84.6864 Q 327.685 84.0235, 328.028 83.532 Q 328.371 83.0291, 329.08 82.652 Q 328.554 82.3548, 328.268 81.9205 Q 327.982 81.4747, 327.982 80.789 Q 327.982 79.8403, 328.668 79.2803 Q 329.365 78.7203, 330.542 78.7203 Q 331.72 78.7203, 332.405 79.2803 Q 333.103 79.8403, 333.103 80.789 Q 333.103 81.3833, 332.771 81.829 Q 332.451 82.2634, 331.811 82.6177 M 330.542 79.5775 Q 329.868 79.5775, 329.491 79.8975 Q 329.125 80.2175, 329.125 80.789 Q 329.125 81.2119, 329.377 81.4976 Q 329.628 81.7719, 329.982 81.9319 Q 330.348 82.0919, 331.045 82.3319 Q 331.537 81.9891, 331.743 81.6233 Q 331.96 81.2576, 331.96 80.789 Q 331.96 80.2175, 331.583 79.8975 Q 331.217 79.5775, 330.542 79.5775 M 330.588 86.1608 Q 331.343 86.1608, 331.8 85.7607 Q 332.257 85.3493, 332.257 84.675 Q 332.257 84.2406, 332.017 83.9663 Q 331.777 83.692, 331.411 83.532 Q 331.057 83.372, 330.417 83.1663 L 329.902 82.9948 Q 329.331 83.3377, 329.08 83.7492 Q 328.828 84.1492, 328.828 84.675 Q 328.828 85.3493, 329.308 85.7607 Q 329.788 86.1608, 330.588 86.1608 " fill="#000000"/>
<path class="atom-19" d="M 95.7435 96.1919 L 96.8407 96.1919 L 96.8407 99.6322 L 100.978 99.6322 L 100.978 96.1919 L 102.075 96.1919 L 102.075 104.284 L 100.978 104.284 L 100.978 100.547 L 96.8407 100.547 L 96.8407 104.284 L 95.7435 104.284 L 95.7435 96.1919 " fill="#000000"/>
<path class="atom-19" d="M 103.138 103.37 L 104.91 103.37 L 104.91 97.3234 L 102.955 97.9292 L 102.693 97.2549 L 105.173 96.1462 L 105.984 96.2834 L 105.984 103.37 L 107.573 103.37 L 107.573 104.284 L 103.138 104.284 L 103.138 103.37 " fill="#000000"/>
<path class="atom-19" d="M 110.922 96.1005 Q 112.362 96.1005, 113.082 97.0834 Q 113.813 98.0549, 113.813 99.9979 Q 113.813 102.147, 112.91 103.267 Q 112.019 104.375, 110.293 104.375 Q 109.79 104.375, 109.356 104.261 Q 108.933 104.147, 108.522 103.907 L 108.967 103.141 Q 109.562 103.461, 110.282 103.461 Q 111.425 103.461, 112.007 102.73 Q 112.59 101.987, 112.659 100.467 Q 112.248 100.844, 111.722 101.049 Q 111.207 101.244, 110.647 101.244 Q 109.939 101.244, 109.379 100.935 Q 108.819 100.627, 108.51 100.066 Q 108.202 99.5064, 108.202 98.7978 Q 108.202 98.0092, 108.544 97.4034 Q 108.899 96.7863, 109.516 96.4434 Q 110.133 96.1005, 110.922 96.1005 M 109.344 98.7864 Q 109.344 99.5064, 109.744 99.9179 Q 110.145 100.329, 110.853 100.329 Q 111.345 100.329, 111.825 100.135 Q 112.316 99.9293, 112.659 99.5864 Q 112.613 98.2492, 112.19 97.6435 Q 111.767 97.0377, 110.91 97.0377 Q 110.476 97.0377, 110.11 97.2663 Q 109.756 97.4949, 109.55 97.8949 Q 109.344 98.2949, 109.344 98.7864 " fill="#000000"/>
<path class="atom-20" d="M 228.097 69.6339 L 229.195 69.6339 L 229.195 73.0742 L 233.332 73.0742 L 233.332 69.6339 L 234.429 69.6339 L 234.429 77.7259 L 233.332 77.7259 L 233.332 73.9885 L 229.195 73.9885 L 229.195 77.7259 L 228.097 77.7259 L 228.097 69.6339 " fill="#000000"/>
<path class="atom-20" d="M 235.024 71.1655 Q 235.321 70.3997, 236.029 69.9768 Q 236.738 69.5425, 237.721 69.5425 Q 238.944 69.5425, 239.63 70.2054 Q 240.315 70.8683, 240.315 72.0455 Q 240.315 73.2456, 239.424 74.3657 Q 238.544 75.4857, 236.715 76.8116 L 240.452 76.8116 L 240.452 77.7259 L 235.001 77.7259 L 235.001 76.9601 Q 236.509 75.8858, 237.401 75.0857 Q 238.304 74.2857, 238.738 73.5656 Q 239.172 72.8456, 239.172 72.1027 Q 239.172 71.3255, 238.784 70.8911 Q 238.395 70.4568, 237.721 70.4568 Q 237.069 70.4568, 236.635 70.7197 Q 236.201 70.9826, 235.892 71.5655 L 235.024 71.1655 " fill="#000000"/>
<path class="atom-20" d="M 244.11 77.8173 Q 242.624 77.8173, 241.881 76.7201 Q 241.15 75.6229, 241.15 73.6685 Q 241.15 71.7141, 241.881 70.6283 Q 242.613 69.5425, 244.11 69.5425 Q 245.607 69.5425, 246.339 70.6283 Q 247.07 71.7141, 247.07 73.6685 Q 247.07 75.6229, 246.327 76.7201 Q 245.596 77.8173, 244.11 77.8173 M 244.11 76.903 Q 244.99 76.903, 245.459 76.0915 Q 245.927 75.2686, 245.927 73.6685 Q 245.927 72.0798, 245.459 71.2683 Q 244.99 70.4568, 244.11 70.4568 Q 243.241 70.4568, 242.761 71.2683 Q 242.293 72.0798, 242.293 73.6685 Q 242.293 75.2686, 242.761 76.0915 Q 243.241 76.903, 244.11 76.903 " fill="#000000"/>
<path class="atom-21" d="M 193.981 6.90962 L 195.078 6.90962 L 195.078 10.3499 L 199.215 10.3499 L 199.215 6.90962 L 200.313 6.90962 L 200.313 15.0016 L 199.215 15.0016 L 199.215 11.2642 L 195.078 11.2642 L 195.078 15.0016 L 193.981 15.0016 L 193.981 6.90962 " fill="#000000"/>
<path class="atom-21" d="M 200.907 8.44115 Q 201.204 7.67538, 201.913 7.2525 Q 202.621 6.81818, 203.604 6.81818 Q 204.827 6.81818, 205.513 7.48108 Q 206.199 8.14399, 206.199 9.32121 Q 206.199 10.5213, 205.307 11.6414 Q 204.427 12.7614, 202.598 14.0873 L 206.336 14.0873 L 206.336 15.0016 L 200.884 15.0016 L 200.884 14.2358 Q 202.393 13.1615, 203.284 12.3614 Q 204.187 11.5614, 204.621 10.8413 Q 205.056 10.1213, 205.056 9.37836 Q 205.056 8.60116, 204.667 8.16685 Q 204.279 7.73253, 203.604 7.73253 Q 202.953 7.73253, 202.518 7.99541 Q 202.084 8.25828, 201.776 8.84118 L 200.907 8.44115 " fill="#000000"/>
<path class="atom-21" d="M 207.399 14.0873 L 209.17 14.0873 L 209.17 8.04112 L 207.216 8.64688 L 206.953 7.97255 L 209.433 6.8639 L 210.245 7.00105 L 210.245 14.0873 L 211.833 14.0873 L 211.833 15.0016 L 207.399 15.0016 L 207.399 14.0873 " fill="#000000"/>
<path class="atom-22" d="M 233.218 26.5491 L 234.315 26.5491 L 234.315 29.9893 L 238.452 29.9893 L 238.452 26.5491 L 239.55 26.5491 L 239.55 34.641 L 238.452 34.641 L 238.452 30.9036 L 234.315 30.9036 L 234.315 34.641 L 233.218 34.641 L 233.218 26.5491 " fill="#000000"/>
<path class="atom-22" d="M 240.144 28.0806 Q 240.441 27.3148, 241.15 26.8919 Q 241.858 26.4576, 242.841 26.4576 Q 244.064 26.4576, 244.75 27.1205 Q 245.436 27.7834, 245.436 28.9607 Q 245.436 30.1607, 244.544 31.2808 Q 243.664 32.4009, 241.835 33.7267 L 245.573 33.7267 L 245.573 34.641 L 240.121 34.641 L 240.121 33.8753 Q 241.63 32.8009, 242.521 32.0009 Q 243.424 31.2008, 243.858 30.4808 Q 244.293 29.7607, 244.293 29.0178 Q 244.293 28.2406, 243.904 27.8063 Q 243.516 27.372, 242.841 27.372 Q 242.19 27.372, 241.755 27.6348 Q 241.321 27.8977, 241.013 28.4806 L 240.144 28.0806 " fill="#000000"/>
<path class="atom-22" d="M 246.167 28.0806 Q 246.464 27.3148, 247.173 26.8919 Q 247.882 26.4576, 248.864 26.4576 Q 250.087 26.4576, 250.773 27.1205 Q 251.459 27.7834, 251.459 28.9607 Q 251.459 30.1607, 250.567 31.2808 Q 249.687 32.4009, 247.859 33.7267 L 251.596 33.7267 L 251.596 34.641 L 246.144 34.641 L 246.144 33.8753 Q 247.653 32.8009, 248.544 32.0009 Q 249.447 31.2008, 249.882 30.4808 Q 250.316 29.7607, 250.316 29.0178 Q 250.316 28.2406, 249.927 27.8063 Q 249.539 27.372, 248.864 27.372 Q 248.213 27.372, 247.779 27.6348 Q 247.344 27.8977, 247.036 28.4806 L 246.167 28.0806 " fill="#000000"/>
<path class="atom-23" d="M 335.981 79.0498 L 337.078 79.0498 L 337.078 82.49 L 341.216 82.49 L 341.216 79.0498 L 342.313 79.0498 L 342.313 87.1418 L 341.216 87.1418 L 341.216 83.4044 L 337.078 83.4044 L 337.078 87.1418 L 335.981 87.1418 L 335.981 79.0498 " fill="#000000"/>
<path class="atom-23" d="M 342.907 80.5813 Q 343.204 79.8156, 343.913 79.3927 Q 344.622 78.9584, 345.604 78.9584 Q 346.827 78.9584, 347.513 79.6213 Q 348.199 80.2842, 348.199 81.4614 Q 348.199 82.6615, 347.307 83.7816 Q 346.427 84.9016, 344.599 86.2274 L 348.336 86.2274 L 348.336 87.1418 L 342.884 87.1418 L 342.884 86.376 Q 344.393 85.3017, 345.284 84.5016 Q 346.187 83.7016, 346.622 82.9815 Q 347.056 82.2615, 347.056 81.5185 Q 347.056 80.7413, 346.667 80.307 Q 346.279 79.8727, 345.604 79.8727 Q 344.953 79.8727, 344.519 80.1356 Q 344.084 80.3985, 343.776 80.9814 L 342.907 80.5813 " fill="#000000"/>
<path class="atom-23" d="M 352.702 82.8786 Q 353.491 83.1072, 353.868 83.6215 Q 354.256 84.1244, 354.256 84.9245 Q 354.256 85.6103, 353.914 86.1474 Q 353.571 86.6732, 352.942 86.9703 Q 352.313 87.2561, 351.491 87.2561 Q 350.622 87.2561, 349.97 86.9589 Q 349.33 86.6503, 348.816 86.0331 L 349.468 85.3702 Q 349.97 85.9188, 350.393 86.136 Q 350.816 86.3417, 351.491 86.3417 Q 352.222 86.3417, 352.668 85.9531 Q 353.114 85.5531, 353.114 84.9131 Q 353.114 84.0901, 352.645 83.7244 Q 352.188 83.3472, 351.193 83.3472 L 350.611 83.3472 L 350.611 82.5243 L 351.125 82.5243 Q 352.005 82.5129, 352.474 82.1357 Q 352.942 81.7471, 352.942 81.0271 Q 352.942 80.5013, 352.554 80.1927 Q 352.165 79.8727, 351.502 79.8727 Q 350.828 79.8727, 350.405 80.1127 Q 349.993 80.3527, 349.673 80.9585 L 348.885 80.5356 Q 349.17 79.8613, 349.856 79.4155 Q 350.542 78.9584, 351.502 78.9584 Q 352.691 78.9584, 353.388 79.5184 Q 354.085 80.0784, 354.085 81.0271 Q 354.085 81.6786, 353.731 82.1472 Q 353.376 82.6158, 352.702 82.8786 " fill="#000000"/>
<path class="atom-24" d="M 309.648 119.075 L 310.745 119.075 L 310.745 122.516 L 314.882 122.516 L 314.882 119.075 L 315.98 119.075 L 315.98 127.167 L 314.882 127.167 L 314.882 123.43 L 310.745 123.43 L 310.745 127.167 L 309.648 127.167 L 309.648 119.075 " fill="#000000"/>
<path class="atom-24" d="M 316.574 120.607 Q 316.871 119.841, 317.58 119.418 Q 318.288 118.984, 319.271 118.984 Q 320.494 118.984, 321.18 119.647 Q 321.866 120.31, 321.866 121.487 Q 321.866 122.687, 320.974 123.807 Q 320.094 124.927, 318.265 126.253 L 322.003 126.253 L 322.003 127.167 L 316.551 127.167 L 316.551 126.402 Q 318.06 125.327, 318.951 124.527 Q 319.854 123.727, 320.288 123.007 Q 320.723 122.287, 320.723 121.544 Q 320.723 120.767, 320.334 120.333 Q 319.946 119.898, 319.271 119.898 Q 318.62 119.898, 318.185 120.161 Q 317.751 120.424, 317.443 121.007 L 316.574 120.607 " fill="#000000"/>
<path class="atom-24" d="M 327.603 124.39 L 328.575 124.39 L 328.575 125.304 L 327.603 125.304 L 327.603 127.167 L 326.529 127.167 L 326.529 125.304 L 322.346 125.304 L 322.346 124.584 L 325.889 119.075 L 327.603 119.075 L 327.603 124.39 M 323.672 124.39 L 326.529 124.39 L 326.529 119.807 L 323.672 124.39 " fill="#000000"/>
<path class="atom-25" d="M 225.907 115.247 L 227.004 115.247 L 227.004 118.687 L 231.141 118.687 L 231.141 115.247 L 232.239 115.247 L 232.239 123.339 L 231.141 123.339 L 231.141 119.601 L 227.004 119.601 L 227.004 123.339 L 225.907 123.339 L 225.907 115.247 " fill="#000000"/>
<path class="atom-25" d="M 232.833 116.778 Q 233.13 116.012, 233.839 115.589 Q 234.547 115.155, 235.53 115.155 Q 236.753 115.155, 237.439 115.818 Q 238.125 116.481, 238.125 117.658 Q 238.125 118.858, 237.233 119.978 Q 236.353 121.098, 234.524 122.424 L 238.262 122.424 L 238.262 123.339 L 232.81 123.339 L 232.81 122.573 Q 234.319 121.498, 235.21 120.698 Q 236.113 119.898, 236.547 119.178 Q 236.982 118.458, 236.982 117.715 Q 236.982 116.938, 236.593 116.504 Q 236.205 116.069, 235.53 116.069 Q 234.879 116.069, 234.444 116.332 Q 234.01 116.595, 233.702 117.178 L 232.833 116.778 " fill="#000000"/>
<path class="atom-25" d="M 241.725 118.275 Q 242.434 118.275, 243.016 118.584 Q 243.599 118.881, 243.931 119.453 Q 244.262 120.013, 244.262 120.778 Q 244.262 121.613, 243.851 122.218 Q 243.451 122.813, 242.788 123.121 Q 242.125 123.43, 241.371 123.43 Q 240.628 123.43, 239.942 123.156 Q 239.256 122.881, 238.788 122.356 L 239.473 121.647 Q 239.851 122.058, 240.365 122.287 Q 240.879 122.504, 241.405 122.504 Q 242.125 122.504, 242.616 122.058 Q 243.119 121.613, 243.119 120.801 Q 243.119 119.944, 242.616 119.544 Q 242.125 119.133, 241.336 119.133 Q 240.628 119.133, 239.839 119.441 L 239.211 119.144 L 239.599 115.247 L 243.759 115.247 L 243.645 116.161 L 240.536 116.161 L 240.296 118.561 Q 241.016 118.275, 241.725 118.275 " fill="#000000"/>
<path class="atom-26" d="M 265.906 134.998 L 267.003 134.998 L 267.003 138.439 L 271.14 138.439 L 271.14 134.998 L 272.238 134.998 L 272.238 143.09 L 271.14 143.09 L 271.14 139.353 L 267.003 139.353 L 267.003 143.09 L 265.906 143.09 L 265.906 134.998 " fill="#000000"/>
<path class="atom-26" d="M 272.832 136.53 Q 273.129 135.764, 273.838 135.341 Q 274.546 134.907, 275.529 134.907 Q 276.752 134.907, 277.438 135.57 Q 278.124 136.233, 278.124 137.41 Q 278.124 138.61, 277.232 139.73 Q 276.352 140.85, 274.523 142.176 L 278.261 142.176 L 278.261 143.09 L 272.809 143.09 L 272.809 142.325 Q 274.318 141.25, 275.209 140.45 Q 276.112 139.65, 276.546 138.93 Q 276.981 138.21, 276.981 137.467 Q 276.981 136.69, 276.592 136.256 Q 276.204 135.821, 275.529 135.821 Q 274.878 135.821, 274.443 136.084 Q 274.009 136.347, 273.7 136.93 L 272.832 136.53 " fill="#000000"/>
<path class="atom-26" d="M 282.204 138.039 Q 282.913 138.039, 283.473 138.347 Q 284.033 138.656, 284.341 139.216 Q 284.65 139.776, 284.65 140.484 Q 284.65 141.273, 284.295 141.89 Q 283.953 142.496, 283.335 142.839 Q 282.718 143.182, 281.93 143.182 Q 280.49 143.182, 279.758 142.21 Q 279.038 141.227, 279.038 139.284 Q 279.038 137.136, 279.929 136.027 Q 280.832 134.907, 282.558 134.907 Q 283.061 134.907, 283.484 135.021 Q 283.918 135.136, 284.33 135.376 L 283.884 136.141 Q 283.29 135.821, 282.57 135.821 Q 281.427 135.821, 280.844 136.564 Q 280.261 137.296, 280.192 138.816 Q 280.604 138.439, 281.118 138.244 Q 281.644 138.039, 282.204 138.039 M 281.941 142.245 Q 282.375 142.245, 282.73 142.016 Q 283.095 141.787, 283.301 141.387 Q 283.507 140.987, 283.507 140.496 Q 283.507 139.776, 283.107 139.364 Q 282.707 138.953, 281.998 138.953 Q 281.507 138.953, 281.015 139.159 Q 280.535 139.353, 280.192 139.696 Q 280.238 141.033, 280.661 141.639 Q 281.084 142.245, 281.941 142.245 " fill="#000000"/>
<path class="atom-27" d="M 108.794 48.7487 L 109.891 48.7487 L 109.891 52.1889 L 114.029 52.1889 L 114.029 48.7487 L 115.126 48.7487 L 115.126 56.8407 L 114.029 56.8407 L 114.029 53.1033 L 109.891 53.1033 L 109.891 56.8407 L 108.794 56.8407 L 108.794 48.7487 " fill="#000000"/>
<path class="atom-27" d="M 115.72 50.2802 Q 116.017 49.5144, 116.726 49.0916 Q 117.435 48.6572, 118.417 48.6572 Q 119.64 48.6572, 120.326 49.3201 Q 121.012 49.983, 121.012 51.1603 Q 121.012 52.3604, 120.12 53.4804 Q 119.24 54.6005, 117.412 55.9263 L 121.149 55.9263 L 121.149 56.8407 L 115.697 56.8407 L 115.697 56.0749 Q 117.206 55.0005, 118.097 54.2005 Q 119 53.4004, 119.435 52.6804 Q 119.869 51.9603, 119.869 51.2174 Q 119.869 50.4402, 119.48 50.0059 Q 119.092 49.5716, 118.417 49.5716 Q 117.766 49.5716, 117.332 49.8345 Q 116.897 50.0973, 116.589 50.6802 L 115.72 50.2802 " fill="#000000"/>
<path class="atom-27" d="M 125.595 49.663 L 121.355 49.663 L 121.355 48.7487 L 126.727 48.7487 L 126.727 49.5602 L 123.458 56.8407 L 122.361 56.8407 L 125.595 49.663 " fill="#000000"/>
<path class="atom-28" d="M 314.054 39.2623 L 315.151 39.2623 L 315.151 42.7025 L 319.288 42.7025 L 319.288 39.2623 L 320.386 39.2623 L 320.386 47.3543 L 319.288 47.3543 L 319.288 43.6169 L 315.151 43.6169 L 315.151 47.3543 L 314.054 47.3543 L 314.054 39.2623 " fill="#000000"/>
<path class="atom-28" d="M 320.98 40.7938 Q 321.277 40.0281, 321.986 39.6052 Q 322.694 39.1709, 323.677 39.1709 Q 324.9 39.1709, 325.586 39.8338 Q 326.272 40.4967, 326.272 41.6739 Q 326.272 42.874, 325.38 43.9941 Q 324.5 45.1141, 322.671 46.4399 L 326.409 46.4399 L 326.409 47.3543 L 320.957 47.3543 L 320.957 46.5885 Q 322.466 45.5142, 323.357 44.7141 Q 324.26 43.9141, 324.694 43.194 Q 325.129 42.474, 325.129 41.7311 Q 325.129 40.9539, 324.74 40.5195 Q 324.352 40.0852, 323.677 40.0852 Q 323.026 40.0852, 322.591 40.3481 Q 322.157 40.611, 321.849 41.1939 L 320.98 40.7938 " fill="#000000"/>
<path class="atom-28" d="M 331.243 43.0683 Q 331.986 43.3883, 332.409 43.8683 Q 332.832 44.3369, 332.832 45.137 Q 332.832 45.8228, 332.478 46.3599 Q 332.124 46.8857, 331.483 47.1829 Q 330.855 47.4686, 330.021 47.4686 Q 328.672 47.4686, 327.895 46.8514 Q 327.117 46.2228, 327.117 45.137 Q 327.117 44.4741, 327.46 43.9826 Q 327.803 43.4797, 328.512 43.1026 Q 327.986 42.8054, 327.7 42.3711 Q 327.415 41.9254, 327.415 41.2396 Q 327.415 40.291, 328.1 39.7309 Q 328.798 39.1709, 329.975 39.1709 Q 331.152 39.1709, 331.838 39.7309 Q 332.535 40.291, 332.535 41.2396 Q 332.535 41.8339, 332.204 42.2797 Q 331.884 42.714, 331.243 43.0683 M 329.975 40.0281 Q 329.3 40.0281, 328.923 40.3481 Q 328.558 40.6681, 328.558 41.2396 Q 328.558 41.6625, 328.809 41.9482 Q 329.06 42.2225, 329.415 42.3825 Q 329.781 42.5425, 330.478 42.7826 Q 330.969 42.4397, 331.175 42.0739 Q 331.392 41.7082, 331.392 41.2396 Q 331.392 40.6681, 331.015 40.3481 Q 330.649 40.0281, 329.975 40.0281 M 330.021 46.6114 Q 330.775 46.6114, 331.232 46.2114 Q 331.689 45.7999, 331.689 45.1256 Q 331.689 44.6913, 331.449 44.417 Q 331.209 44.1426, 330.843 43.9826 Q 330.489 43.8226, 329.849 43.6169 L 329.335 43.4455 Q 328.763 43.7883, 328.512 44.1998 Q 328.26 44.5998, 328.26 45.1256 Q 328.26 45.7999, 328.74 46.2114 Q 329.22 46.6114, 330.021 46.6114 " fill="#000000"/>
</svg>