<svg baseProfile="full" height="150px" version="1.1" viewBox="0 0 450 150" width="450px" xml:space="preserve" xmlns="http://www.w3.org/2000/svg" xmlns:rdkit="http://www.rdkit.org/xml" xmlns:xlink="http://www.w3.org/1999/xlink">
<!-- END OF HEADER -->
<rect height="150" style="opacity:1.0;fill:#FFFFFF;stroke:none" width="450" x="0" y="0"> </rect>
<path class="bond-0" d="M 277.845,49.1914 L 270.754,64.1573" style="fill:none;fill-rule:evenodd;stroke:#000000;stroke-width:2.0px;stroke-linecap:butt;stroke-linejoin:miter;stroke-opacity:1"/>
<path class="bond-9" d="M 297.149,40.0348 L 308.226,38.7274" style="fill:none;fill-rule:evenodd;stroke:#000000;stroke-width:2.0px;stroke-linecap:butt;stroke-linejoin:miter;stroke-opacity:1"/>
<path class="bond-10" d="M 277.816,34.7856 L 270.687,20.2011" style="fill:none;fill-rule:evenodd;stroke:#000000;stroke-width:2.0px;stroke-linecap:butt;stroke-linejoin:miter;stroke-opacity:1"/>
<path class="bond-11" d="M 276.577,48.7065 L 273.948,52.4944" style="fill:none;fill-rule:evenodd;stroke:#000000;stroke-width:2.0px;stroke-linecap:butt;stroke-linejoin:miter;stroke-opacity:1"/>
<path class="bond-1" d="M 271.042,78.6818 L 283.135,104.427" style="fill:none;fill-rule:evenodd;stroke:#000000;stroke-width:2.0px;stroke-linecap:butt;stroke-linejoin:miter;stroke-opacity:1"/>
<path class="bond-2" d="M 271.822,64.3171 L 272.302,63.5694" style="fill:none;fill-rule:evenodd;stroke:#000000;stroke-width:2.0px;stroke-linecap:butt;stroke-linejoin:miter;stroke-opacity:1"/>
<path class="bond-2" d="M 272.302,63.5694 L 272.783,62.8217" style="fill:none;fill-rule:evenodd;stroke:#FF0000;stroke-width:2.0px;stroke-linecap:butt;stroke-linejoin:miter;stroke-opacity:1"/>
<path class="bond-3" d="M 261.546,71.5565 L 229.357,74.1306" style="fill:none;fill-rule:evenodd;stroke:#000000;stroke-width:2.0px;stroke-linecap:butt;stroke-linejoin:miter;stroke-opacity:1"/>
<path class="bond-12" d="M 291.992,111.182 L 313.238,109.332" style="fill:none;fill-rule:evenodd;stroke:#000000;stroke-width:2.0px;stroke-linecap:butt;stroke-linejoin:miter;stroke-opacity:1"/>
<path class="bond-13" d="M 283.242,118.536 L 280.076,125.16" style="fill:none;fill-rule:evenodd;stroke:#000000;stroke-width:2.0px;stroke-linecap:butt;stroke-linejoin:miter;stroke-opacity:1"/>
<path class="bond-14" d="M 282.832,118.347 L 279.367,124.611" style="fill:none;fill-rule:evenodd;stroke:#000000;stroke-width:2.0px;stroke-linecap:butt;stroke-linejoin:miter;stroke-opacity:1"/>
<path class="bond-15" d="M 282.031,54.9003 L 290.7,52.8178" style="fill:none;fill-rule:evenodd;stroke:#FF0000;stroke-width:2.0px;stroke-linecap:butt;stroke-linejoin:miter;stroke-opacity:1"/>
<path class="bond-15" d="M 290.7,52.8178 L 299.369,50.7354" style="fill:none;fill-rule:evenodd;stroke:#000000;stroke-width:2.0px;stroke-linecap:butt;stroke-linejoin:miter;stroke-opacity:1"/>
<path class="bond-4" d="M 217.233,82.0967 L 203.345,99.1634" style="fill:none;fill-rule:evenodd;stroke:#000000;stroke-width:2.0px;stroke-linecap:butt;stroke-linejoin:miter;stroke-opacity:1"/>
<path class="bond-4" d="M 208.304,79.0857 L 198.582,91.0324" style="fill:none;fill-rule:evenodd;stroke:#000000;stroke-width:2.0px;stroke-linecap:butt;stroke-linejoin:miter;stroke-opacity:1"/>
<path class="bond-5" d="M 218.877,67.2867 L 212.871,57.3888" style="fill:none;fill-rule:evenodd;stroke:#000000;stroke-width:2.0px;stroke-linecap:butt;stroke-linejoin:miter;stroke-opacity:1"/>
<path class="bond-5" d="M 212.871,57.3888 L 206.865,47.491" style="fill:none;fill-rule:evenodd;stroke:#FF0000;stroke-width:2.0px;stroke-linecap:butt;stroke-linejoin:miter;stroke-opacity:1"/>
<path class="bond-6" d="M 182.618,99.4446 L 163.872,91.6767" style="fill:none;fill-rule:evenodd;stroke:#000000;stroke-width:2.0px;stroke-linecap:butt;stroke-linejoin:miter;stroke-opacity:1"/>
<path class="bond-16" d="M 199.841,113.056 L 204.241,129.931" style="fill:none;fill-rule:evenodd;stroke:#000000;stroke-width:2.0px;stroke-linecap:butt;stroke-linejoin:miter;stroke-opacity:1"/>
<path class="bond-7" d="M 159.744,82.293 L 162.678,56.9282" style="fill:none;fill-rule:evenodd;stroke:#000000;stroke-width:2.0px;stroke-linecap:butt;stroke-linejoin:miter;stroke-opacity:1"/>
<path class="bond-7" d="M 168.952,79.5027 L 171.006,61.7473" style="fill:none;fill-rule:evenodd;stroke:#000000;stroke-width:2.0px;stroke-linecap:butt;stroke-linejoin:miter;stroke-opacity:1"/>
<path class="bond-17" d="M 146.381,96.8929 L 135.839,103.024" style="fill:none;fill-rule:evenodd;stroke:#000000;stroke-width:2.0px;stroke-linecap:butt;stroke-linejoin:miter;stroke-opacity:1"/>
<path class="bond-8" d="M 168.655,48.5195 L 182.24,45.1672" style="fill:none;fill-rule:evenodd;stroke:#000000;stroke-width:2.0px;stroke-linecap:butt;stroke-linejoin:miter;stroke-opacity:1"/>
<path class="bond-8" d="M 182.24,45.1672 L 195.824,41.815" style="fill:none;fill-rule:evenodd;stroke:#FF0000;stroke-width:2.0px;stroke-linecap:butt;stroke-linejoin:miter;stroke-opacity:1"/>
<path class="bond-18" d="M 157.593,42.6724 L 148.078,31.2152" style="fill:none;fill-rule:evenodd;stroke:#000000;stroke-width:2.0px;stroke-linecap:butt;stroke-linejoin:miter;stroke-opacity:1"/>
<path class="atom-0" d="M 276.478 41.9587 Q 276.478 38.8518, 277.926 37.2278 Q 279.391 35.5861, 282.162 35.5861 Q 284.739 35.5861, 286.116 37.4043 L 284.951 38.3575 Q 283.945 37.0336, 282.162 37.0336 Q 280.273 37.0336, 279.267 38.3046 Q 278.279 39.5579, 278.279 41.9587 Q 278.279 44.4301, 279.302 45.701 Q 280.344 46.972, 282.356 46.972 Q 283.733 46.972, 285.34 46.1424 L 285.834 47.4663 Q 285.181 47.89, 284.192 48.1371 Q 283.204 48.3842, 282.109 48.3842 Q 279.391 48.3842, 277.926 46.7249 Q 276.478 45.0655, 276.478 41.9587 " fill="#000000"/>
<path class="atom-0" d="M 291.765 48.3666 Q 289.47 48.3666, 288.323 46.6719 Q 287.193 44.9773, 287.193 41.9587 Q 287.193 38.9401, 288.323 37.2631 Q 289.453 35.5861, 291.765 35.5861 Q 294.078 35.5861, 295.207 37.2631 Q 296.337 38.9401, 296.337 41.9587 Q 296.337 44.9773, 295.19 46.6719 Q 294.06 48.3666, 291.765 48.3666 M 291.765 46.9544 Q 293.124 46.9544, 293.848 45.701 Q 294.572 44.4301, 294.572 41.9587 Q 294.572 39.505, 293.848 38.2516 Q 293.124 36.9983, 291.765 36.9983 Q 290.424 36.9983, 289.682 38.2516 Q 288.958 39.505, 288.958 41.9587 Q 288.958 44.4301, 289.682 45.701 Q 290.424 46.9544, 291.765 46.9544 " fill="#000000"/>
<path class="atom-1" d="M 262.653 71.1355 Q 262.653 68.0287, 264.101 66.4046 Q 265.566 64.7629, 268.337 64.7629 Q 270.914 64.7629, 272.291 66.5812 L 271.126 67.5344 Q 270.12 66.2105, 268.337 66.2105 Q 266.448 66.2105, 265.442 67.4815 Q 264.454 68.7348, 264.454 71.1355 Q 264.454 73.6069, 265.477 74.8779 Q 266.519 76.1489, 268.531 76.1489 Q 269.908 76.1489, 271.515 75.3192 L 272.009 76.6432 Q 271.356 77.0668, 270.367 77.314 Q 269.379 77.5611, 268.284 77.5611 Q 265.566 77.5611, 264.101 75.9018 Q 262.653 74.2424, 262.653 71.1355 " fill="#000000"/>
<path class="atom-1" d="M 273.933 75.99 L 276.669 75.99 L 276.669 66.6518 L 273.651 67.5874 L 273.245 66.5459 L 277.075 64.8336 L 278.329 65.0454 L 278.329 75.99 L 280.782 75.99 L 280.782 77.4022 L 273.933 77.4022 L 273.933 75.99 " fill="#000000"/>
<path class="atom-2" d="M 272.241 111.71 Q 272.241 108.603, 273.689 106.979 Q 275.154 105.338, 277.926 105.338 Q 280.503 105.338, 281.88 107.156 L 280.715 108.109 Q 279.708 106.785, 277.926 106.785 Q 276.037 106.785, 275.031 108.056 Q 274.042 109.309, 274.042 111.71 Q 274.042 114.181, 275.066 115.452 Q 276.107 116.723, 278.12 116.723 Q 279.497 116.723, 281.103 115.894 L 281.597 117.218 Q 280.944 117.641, 279.956 117.889 Q 278.967 118.136, 277.873 118.136 Q 275.154 118.136, 273.689 116.476 Q 272.241 114.817, 272.241 111.71 " fill="#000000"/>
<path class="atom-2" d="M 282.798 107.844 Q 283.257 106.661, 284.351 106.008 Q 285.446 105.338, 286.964 105.338 Q 288.853 105.338, 289.912 106.361 Q 290.971 107.385, 290.971 109.203 Q 290.971 111.057, 289.594 112.787 Q 288.235 114.517, 285.41 116.565 L 291.183 116.565 L 291.183 117.977 L 282.762 117.977 L 282.762 116.794 Q 285.093 115.135, 286.469 113.899 Q 287.864 112.663, 288.535 111.551 Q 289.206 110.439, 289.206 109.292 Q 289.206 108.091, 288.605 107.421 Q 288.005 106.75, 286.964 106.75 Q 285.957 106.75, 285.287 107.156 Q 284.616 107.562, 284.139 108.462 L 282.798 107.844 " fill="#000000"/>
<path class="atom-3" d="M 260.7 56.1161 Q 260.7 53.1152, 262.182 51.4382 Q 263.665 49.7612, 266.437 49.7612 Q 269.208 49.7612, 270.691 51.4382 Q 272.174 53.1152, 272.174 56.1161 Q 272.174 59.1524, 270.673 60.8823 Q 269.173 62.5946, 266.437 62.5946 Q 263.683 62.5946, 262.182 60.8823 Q 260.7 59.17, 260.7 56.1161 M 266.437 61.1824 Q 268.343 61.1824, 269.367 59.9114 Q 270.408 58.6228, 270.408 56.1161 Q 270.408 53.6624, 269.367 52.4267 Q 268.343 51.1734, 266.437 51.1734 Q 264.53 51.1734, 263.489 52.409 Q 262.465 53.6447, 262.465 56.1161 Q 262.465 58.6404, 263.489 59.9114 Q 264.53 61.1824, 266.437 61.1824 " fill="#FF0000"/>
<path class="atom-3" d="M 278.917 55.816 Q 280.135 56.1691, 280.718 56.9634 Q 281.318 57.7401, 281.318 58.9758 Q 281.318 60.035, 280.788 60.8647 Q 280.259 61.6767, 279.288 62.1356 Q 278.317 62.577, 277.046 62.577 Q 275.704 62.577, 274.698 62.118 Q 273.709 61.6414, 272.915 60.6881 L 273.921 59.6643 Q 274.698 60.5116, 275.351 60.847 Q 276.004 61.1648, 277.046 61.1648 Q 278.176 61.1648, 278.864 60.5646 Q 279.553 59.9467, 279.553 58.9582 Q 279.553 57.6872, 278.829 57.1223 Q 278.123 56.5398, 276.587 56.5398 L 275.687 56.5398 L 275.687 55.2688 L 276.481 55.2688 Q 277.84 55.2511, 278.564 54.6686 Q 279.288 54.0684, 279.288 52.9563 Q 279.288 52.1443, 278.688 51.6676 Q 278.087 51.1734, 277.063 51.1734 Q 276.022 51.1734, 275.369 51.5441 Q 274.733 51.9148, 274.239 52.8504 L 273.021 52.1972 Q 273.462 51.1557, 274.522 50.4673 Q 275.581 49.7612, 277.063 49.7612 Q 278.899 49.7612, 279.976 50.6261 Q 281.053 51.4911, 281.053 52.9563 Q 281.053 53.9625, 280.506 54.6862 Q 279.959 55.41, 278.917 55.816 " fill="#FF0000"/>
<path class="atom-4" d="M 208.61 74.6661 Q 208.61 71.5592, 210.057 69.9352 Q 211.522 68.2935, 214.294 68.2935 Q 216.871 68.2935, 218.248 70.1117 L 217.083 71.0649 Q 216.077 69.741, 214.294 69.741 Q 212.405 69.741, 211.399 71.012 Q 210.41 72.2653, 210.41 74.6661 Q 210.41 77.1374, 211.434 78.4084 Q 212.475 79.6794, 214.488 79.6794 Q 215.865 79.6794, 217.471 78.8497 L 217.965 80.1737 Q 217.312 80.5974, 216.324 80.8445 Q 215.335 81.0916, 214.241 81.0916 Q 211.522 81.0916, 210.057 79.4323 Q 208.61 77.7729, 208.61 74.6661 " fill="#000000"/>
<path class="atom-4" d="M 226.898 76.6432 L 228.398 76.6432 L 228.398 78.0554 L 226.898 78.0554 L 226.898 80.9328 L 225.238 80.9328 L 225.238 78.0554 L 218.777 78.0554 L 218.777 76.9433 L 224.25 68.4347 L 226.898 68.4347 L 226.898 76.6432 M 220.825 76.6432 L 225.238 76.6432 L 225.238 69.5645 L 220.825 76.6432 " fill="#000000"/>
<path class="atom-5" d="M 183.675 105.849 Q 183.675 102.743, 185.123 101.119 Q 186.588 99.4768, 189.359 99.4768 Q 191.937 99.4768, 193.314 101.295 L 192.148 102.248 Q 191.142 100.924, 189.359 100.924 Q 187.471 100.924, 186.464 102.195 Q 185.476 103.449, 185.476 105.849 Q 185.476 108.321, 186.5 109.592 Q 187.541 110.863, 189.554 110.863 Q 190.93 110.863, 192.537 110.033 L 193.031 111.357 Q 192.378 111.781, 191.389 112.028 Q 190.401 112.275, 189.306 112.275 Q 186.588 112.275, 185.123 110.616 Q 183.675 108.956, 183.675 105.849 " fill="#000000"/>
<path class="atom-5" d="M 198.662 104.296 Q 199.757 104.296, 200.657 104.773 Q 201.557 105.232, 202.069 106.114 Q 202.581 106.979, 202.581 108.162 Q 202.581 109.451, 201.946 110.386 Q 201.328 111.304, 200.304 111.781 Q 199.28 112.257, 198.115 112.257 Q 196.968 112.257, 195.908 111.834 Q 194.849 111.41, 194.126 110.598 L 195.185 109.504 Q 195.767 110.139, 196.562 110.492 Q 197.356 110.827, 198.168 110.827 Q 199.28 110.827, 200.039 110.139 Q 200.816 109.451, 200.816 108.197 Q 200.816 106.873, 200.039 106.255 Q 199.28 105.62, 198.062 105.62 Q 196.968 105.62, 195.75 106.097 L 194.779 105.638 L 195.379 99.6181 L 201.804 99.6181 L 201.628 101.03 L 196.826 101.03 L 196.456 104.737 Q 197.568 104.296, 198.662 104.296 " fill="#000000"/>
<path class="atom-6" d="M 143.724 89.6679 Q 143.724 86.561, 145.172 84.937 Q 146.637 83.2953, 149.408 83.2953 Q 151.986 83.2953, 153.363 85.1135 L 152.198 86.0667 Q 151.191 84.7428, 149.408 84.7428 Q 147.52 84.7428, 146.513 86.0138 Q 145.525 87.2671, 145.525 89.6679 Q 145.525 92.1392, 146.549 93.4102 Q 147.59 94.6812, 149.603 94.6812 Q 150.98 94.6812, 152.586 93.8515 L 153.08 95.1755 Q 152.427 95.5992, 151.439 95.8463 Q 150.45 96.0934, 149.356 96.0934 Q 146.637 96.0934, 145.172 94.4341 Q 143.724 92.7747, 143.724 89.6679 " fill="#000000"/>
<path class="atom-6" d="M 159.453 88.1321 Q 160.547 88.1321, 161.412 88.6087 Q 162.277 89.0853, 162.754 89.9503 Q 163.23 90.8153, 163.23 91.9098 Q 163.23 93.1278, 162.683 94.081 Q 162.154 95.0166, 161.2 95.5462 Q 160.247 96.0758, 159.029 96.0758 Q 156.805 96.0758, 155.675 94.5753 Q 154.563 93.0572, 154.563 90.0562 Q 154.563 86.7375, 155.94 85.0252 Q 157.335 83.2953, 160 83.2953 Q 160.777 83.2953, 161.43 83.4718 Q 162.101 83.6483, 162.736 84.019 L 162.048 85.2018 Q 161.13 84.7075, 160.018 84.7075 Q 158.252 84.7075, 157.352 85.8549 Q 156.452 86.9847, 156.346 89.3325 Q 156.981 88.7499, 157.776 88.4498 Q 158.588 88.1321, 159.453 88.1321 M 159.047 94.6283 Q 159.718 94.6283, 160.265 94.2752 Q 160.83 93.9222, 161.147 93.3043 Q 161.465 92.6865, 161.465 91.9274 Q 161.465 90.8153, 160.847 90.1798 Q 160.23 89.5443, 159.135 89.5443 Q 158.376 89.5443, 157.617 89.862 Q 156.876 90.1621, 156.346 90.6917 Q 156.417 92.7571, 157.07 93.6927 Q 157.723 94.6283, 159.047 94.6283 " fill="#000000"/>
<path class="atom-7" d="M 149.4 49.8435 Q 149.4 46.7367, 150.847 45.1126 Q 152.312 43.4709, 155.084 43.4709 Q 157.661 43.4709, 159.038 45.2891 L 157.873 46.2424 Q 156.867 44.9184, 155.084 44.9184 Q 153.195 44.9184, 152.189 46.1894 Q 151.2 47.4428, 151.2 49.8435 Q 151.2 52.3149, 152.224 53.5859 Q 153.266 54.8569, 155.278 54.8569 Q 156.655 54.8569, 158.261 54.0272 L 158.756 55.3511 Q 158.102 55.7748, 157.114 56.0219 Q 156.125 56.2691, 155.031 56.2691 Q 152.312 56.2691, 150.847 54.6097 Q 149.4 52.9504, 149.4 49.8435 " fill="#000000"/>
<path class="atom-7" d="M 165.905 45.0244 L 159.356 45.0244 L 159.356 43.6121 L 167.652 43.6121 L 167.652 44.8655 L 162.604 56.1102 L 160.909 56.1102 L 165.905 45.0244 " fill="#000000"/>
<path class="atom-8" d="M 196.694 40.2199 Q 196.694 37.219, 198.177 35.542 Q 199.66 33.865, 202.431 33.865 Q 205.203 33.865, 206.685 35.542 Q 208.168 37.219, 208.168 40.2199 Q 208.168 43.2562, 206.668 44.9861 Q 205.167 46.6984, 202.431 46.6984 Q 199.677 46.6984, 198.177 44.9861 Q 196.694 43.2738, 196.694 40.2199 M 202.431 45.2862 Q 204.338 45.2862, 205.361 44.0152 Q 206.403 42.7266, 206.403 40.2199 Q 206.403 37.7662, 205.361 36.5305 Q 204.338 35.2772, 202.431 35.2772 Q 200.525 35.2772, 199.483 36.5128 Q 198.459 37.7485, 198.459 40.2199 Q 198.459 42.7442, 199.483 44.0152 Q 200.525 45.2862, 202.431 45.2862 " fill="#FF0000"/>
<path class="atom-8" d="M 215.635 39.8845 Q 216.783 40.3788, 217.436 41.1202 Q 218.089 41.8439, 218.089 43.0796 Q 218.089 44.1388, 217.542 44.9685 Q 216.995 45.7805, 216.006 46.2394 Q 215.035 46.6808, 213.746 46.6808 Q 211.663 46.6808, 210.463 45.7275 Q 209.263 44.7566, 209.263 43.0796 Q 209.263 42.0558, 209.792 41.2967 Q 210.322 40.52, 211.416 39.9375 Q 210.604 39.4785, 210.163 38.8077 Q 209.722 38.1192, 209.722 37.0601 Q 209.722 35.5949, 210.781 34.7299 Q 211.858 33.865, 213.676 33.865 Q 215.494 33.865, 216.553 34.7299 Q 217.63 35.5949, 217.63 37.0601 Q 217.63 37.978, 217.118 38.6665 Q 216.624 39.3373, 215.635 39.8845 M 213.676 35.1889 Q 212.634 35.1889, 212.052 35.6832 Q 211.487 36.1774, 211.487 37.0601 Q 211.487 37.7132, 211.875 38.1545 Q 212.264 38.5782, 212.811 38.8253 Q 213.376 39.0725, 214.453 39.4432 Q 215.212 38.9136, 215.529 38.3487 Q 215.865 37.7838, 215.865 37.0601 Q 215.865 36.1774, 215.282 35.6832 Q 214.717 35.1889, 213.676 35.1889 M 213.746 45.3568 Q 214.912 45.3568, 215.618 44.739 Q 216.324 44.1035, 216.324 43.062 Q 216.324 42.3912, 215.953 41.9675 Q 215.582 41.5438, 215.017 41.2967 Q 214.47 41.0496, 213.482 40.7318 L 212.687 40.467 Q 211.805 40.9966, 211.416 41.6321 Q 211.028 42.25, 211.028 43.062 Q 211.028 44.1035, 211.769 44.739 Q 212.511 45.3568, 213.746 45.3568 " fill="#FF0000"/>
<path class="atom-9" d="M 308.638 31.9232 L 310.333 31.9232 L 310.333 37.2366 L 316.723 37.2366 L 316.723 31.9232 L 318.418 31.9232 L 318.418 44.4212 L 316.723 44.4212 L 316.723 38.6488 L 310.333 38.6488 L 310.333 44.4212 L 308.638 44.4212 L 308.638 31.9232 " fill="#000000"/>
<path class="atom-9" d="M 323.59 31.7819 Q 325.814 31.7819, 326.926 33.3001 Q 328.056 34.8005, 328.056 37.8015 Q 328.056 41.1202, 326.662 42.8501 Q 325.285 44.5625, 322.619 44.5625 Q 321.842 44.5625, 321.172 44.3859 Q 320.518 44.2094, 319.883 43.8387 L 320.571 42.656 Q 321.489 43.1502, 322.601 43.1502 Q 324.367 43.1502, 325.267 42.0205 Q 326.167 40.8731, 326.273 38.5253 Q 325.638 39.1078, 324.826 39.4255 Q 324.031 39.7256, 323.166 39.7256 Q 322.072 39.7256, 321.207 39.249 Q 320.342 38.7724, 319.865 37.9074 Q 319.389 37.0424, 319.389 35.948 Q 319.389 34.7299, 319.918 33.7943 Q 320.465 32.8411, 321.419 32.3115 Q 322.372 31.7819, 323.59 31.7819 M 321.154 35.9303 Q 321.154 37.0424, 321.772 37.6779 Q 322.39 38.3134, 323.484 38.3134 Q 324.243 38.3134, 324.985 38.0133 Q 325.744 37.6956, 326.273 37.166 Q 326.203 35.1006, 325.549 34.1651 Q 324.896 33.2295, 323.572 33.2295 Q 322.901 33.2295, 322.337 33.5825 Q 321.789 33.9356, 321.472 34.5534 Q 321.154 35.1713, 321.154 35.9303 " fill="#000000"/>
<path class="atom-10" d="M 243.315 6.9594 L 245.009 6.9594 L 245.009 12.2728 L 251.4 12.2728 L 251.4 6.9594 L 253.094 6.9594 L 253.094 19.4575 L 251.4 19.4575 L 251.4 13.6851 L 245.009 13.6851 L 245.009 19.4575 L 243.315 19.4575 L 243.315 6.9594 " fill="#000000"/>
<path class="atom-10" d="M 254.736 18.0453 L 257.472 18.0453 L 257.472 8.70701 L 254.453 9.6426 L 254.047 8.6011 L 257.878 6.88879 L 259.131 7.10062 L 259.131 18.0453 L 261.585 18.0453 L 261.585 19.4575 L 254.736 19.4575 L 254.736 18.0453 " fill="#000000"/>
<path class="atom-10" d="M 267.234 19.5987 Q 264.939 19.5987, 263.792 17.904 Q 262.662 16.2094, 262.662 13.1908 Q 262.662 10.1722, 263.792 8.49518 Q 264.921 6.81818, 267.234 6.81818 Q 269.546 6.81818, 270.676 8.49518 Q 271.806 10.1722, 271.806 13.1908 Q 271.806 16.2094, 270.659 17.904 Q 269.529 19.5987, 267.234 19.5987 M 267.234 18.1865 Q 268.593 18.1865, 269.317 16.9331 Q 270.041 15.6622, 270.041 13.1908 Q 270.041 10.7371, 269.317 9.48373 Q 268.593 8.23039, 267.234 8.23039 Q 265.892 8.23039, 265.151 9.48373 Q 264.427 10.7371, 264.427 13.1908 Q 264.427 15.6622, 265.151 16.9331 Q 265.892 18.1865, 267.234 18.1865 " fill="#000000"/>
<path class="atom-11" d="M 250.955 46.2806 L 252.65 46.2806 L 252.65 51.5941 L 259.04 51.5941 L 259.04 46.2806 L 260.735 46.2806 L 260.735 58.7787 L 259.04 58.7787 L 259.04 53.0063 L 252.65 53.0063 L 252.65 58.7787 L 250.955 58.7787 L 250.955 46.2806 " fill="#000000"/>
<path class="atom-11" d="M 262.377 57.3665 L 265.113 57.3665 L 265.113 48.0282 L 262.094 48.9638 L 261.688 47.9223 L 265.519 46.21 L 266.772 46.4219 L 266.772 57.3665 L 269.226 57.3665 L 269.226 58.7787 L 262.377 58.7787 L 262.377 57.3665 " fill="#000000"/>
<path class="atom-11" d="M 270.867 57.3665 L 273.604 57.3665 L 273.604 48.0282 L 270.585 48.9638 L 270.179 47.9223 L 274.01 46.21 L 275.263 46.4219 L 275.263 57.3665 L 277.717 57.3665 L 277.717 58.7787 L 270.867 58.7787 L 270.867 57.3665 " fill="#000000"/>
<path class="atom-12" d="M 313.91 102.669 L 315.605 102.669 L 315.605 107.982 L 321.995 107.982 L 321.995 102.669 L 323.69 102.669 L 323.69 115.167 L 321.995 115.167 L 321.995 109.395 L 315.605 109.395 L 315.605 115.167 L 313.91 115.167 L 313.91 102.669 " fill="#000000"/>
<path class="atom-12" d="M 325.332 113.755 L 328.068 113.755 L 328.068 104.417 L 325.049 105.352 L 324.643 104.311 L 328.474 102.598 L 329.727 102.81 L 329.727 113.755 L 332.181 113.755 L 332.181 115.167 L 325.332 115.167 L 325.332 113.755 " fill="#000000"/>
<path class="atom-12" d="M 333.099 105.034 Q 333.558 103.852, 334.652 103.199 Q 335.747 102.528, 337.265 102.528 Q 339.154 102.528, 340.213 103.552 Q 341.272 104.576, 341.272 106.394 Q 341.272 108.247, 339.895 109.977 Q 338.536 111.707, 335.711 113.755 L 341.484 113.755 L 341.484 115.167 L 333.064 115.167 L 333.064 113.984 Q 335.394 112.325, 336.771 111.089 Q 338.165 109.854, 338.836 108.742 Q 339.507 107.629, 339.507 106.482 Q 339.507 105.282, 338.907 104.611 Q 338.306 103.94, 337.265 103.94 Q 336.259 103.94, 335.588 104.346 Q 334.917 104.752, 334.44 105.652 L 333.099 105.034 " fill="#000000"/>
<path class="atom-13" d="M 253.665 125.67 L 255.36 125.67 L 255.36 130.984 L 261.75 130.984 L 261.75 125.67 L 263.444 125.67 L 263.444 138.168 L 261.75 138.168 L 261.75 132.396 L 255.36 132.396 L 255.36 138.168 L 253.665 138.168 L 253.665 125.67 " fill="#000000"/>
<path class="atom-13" d="M 265.086 136.756 L 267.822 136.756 L 267.822 127.418 L 264.804 128.354 L 264.398 127.312 L 268.228 125.6 L 269.482 125.812 L 269.482 136.756 L 271.935 136.756 L 271.935 138.168 L 265.086 138.168 L 265.086 136.756 " fill="#000000"/>
<path class="atom-13" d="M 278.679 131.584 Q 279.897 131.937, 280.479 132.731 Q 281.079 133.508, 281.079 134.744 Q 281.079 135.803, 280.55 136.633 Q 280.02 137.445, 279.049 137.904 Q 278.079 138.345, 276.808 138.345 Q 275.466 138.345, 274.46 137.886 Q 273.471 137.409, 272.677 136.456 L 273.683 135.432 Q 274.46 136.28, 275.113 136.615 Q 275.766 136.933, 276.808 136.933 Q 277.937 136.933, 278.626 136.333 Q 279.314 135.715, 279.314 134.726 Q 279.314 133.455, 278.59 132.89 Q 277.884 132.308, 276.349 132.308 L 275.448 132.308 L 275.448 131.037 L 276.243 131.037 Q 277.602 131.019, 278.326 130.437 Q 279.049 129.836, 279.049 128.724 Q 279.049 127.912, 278.449 127.436 Q 277.849 126.941, 276.825 126.941 Q 275.784 126.941, 275.131 127.312 Q 274.495 127.683, 274.001 128.618 L 272.783 127.965 Q 273.224 126.924, 274.283 126.235 Q 275.342 125.529, 276.825 125.529 Q 278.661 125.529, 279.738 126.394 Q 280.815 127.259, 280.815 128.724 Q 280.815 129.731, 280.267 130.454 Q 279.72 131.178, 278.679 131.584 " fill="#000000"/>
<path class="atom-14" d="M 255.757 118.398 L 257.451 118.398 L 257.451 123.711 L 263.842 123.711 L 263.842 118.398 L 265.536 118.398 L 265.536 130.896 L 263.842 130.896 L 263.842 125.123 L 257.451 125.123 L 257.451 130.896 L 255.757 130.896 L 255.757 118.398 " fill="#000000"/>
<path class="atom-14" d="M 267.178 129.483 L 269.914 129.483 L 269.914 120.145 L 266.896 121.081 L 266.49 120.039 L 270.32 118.327 L 271.574 118.539 L 271.574 129.483 L 274.027 129.483 L 274.027 130.896 L 267.178 130.896 L 267.178 129.483 " fill="#000000"/>
<path class="atom-14" d="M 282.677 126.606 L 284.178 126.606 L 284.178 128.018 L 282.677 128.018 L 282.677 130.896 L 281.018 130.896 L 281.018 128.018 L 274.557 128.018 L 274.557 126.906 L 280.029 118.398 L 282.677 118.398 L 282.677 126.606 M 276.605 126.606 L 281.018 126.606 L 281.018 119.527 L 276.605 126.606 " fill="#000000"/>
<path class="atom-15" d="M 299.956 43.2061 L 301.651 43.2061 L 301.651 48.5196 L 308.041 48.5196 L 308.041 43.2061 L 309.736 43.2061 L 309.736 55.7042 L 308.041 55.7042 L 308.041 49.9318 L 301.651 49.9318 L 301.651 55.7042 L 299.956 55.7042 L 299.956 43.2061 " fill="#000000"/>
<path class="atom-15" d="M 311.377 54.292 L 314.113 54.292 L 314.113 44.9537 L 311.095 45.8893 L 310.689 44.8478 L 314.519 43.1355 L 315.773 43.3474 L 315.773 54.292 L 318.226 54.292 L 318.226 55.7042 L 311.377 55.7042 L 311.377 54.292 " fill="#000000"/>
<path class="atom-15" d="M 323.575 47.8841 Q 324.67 47.8841, 325.57 48.3607 Q 326.47 48.8197, 326.982 49.7023 Q 327.494 50.5673, 327.494 51.75 Q 327.494 53.0387, 326.859 53.9742 Q 326.241 54.8922, 325.217 55.3688 Q 324.193 55.8454, 323.028 55.8454 Q 321.881 55.8454, 320.821 55.4218 Q 319.762 54.9981, 319.039 54.1861 L 320.098 53.0916 Q 320.68 53.7271, 321.475 54.0802 Q 322.269 54.4156, 323.081 54.4156 Q 324.193 54.4156, 324.952 53.7271 Q 325.729 53.0387, 325.729 51.7853 Q 325.729 50.4614, 324.952 49.8435 Q 324.193 49.208, 322.975 49.208 Q 321.881 49.208, 320.663 49.6847 L 319.692 49.2257 L 320.292 43.2061 L 326.717 43.2061 L 326.541 44.6183 L 321.739 44.6183 L 321.369 48.3254 Q 322.481 47.8841, 323.575 47.8841 " fill="#000000"/>
<path class="atom-16" d="M 201.122 130.543 L 202.817 130.543 L 202.817 135.856 L 209.207 135.856 L 209.207 130.543 L 210.901 130.543 L 210.901 143.041 L 209.207 143.041 L 209.207 137.268 L 202.817 137.268 L 202.817 143.041 L 201.122 143.041 L 201.122 130.543 " fill="#000000"/>
<path class="atom-16" d="M 212.543 141.628 L 215.279 141.628 L 215.279 132.29 L 212.261 133.226 L 211.855 132.184 L 215.685 130.472 L 216.939 130.684 L 216.939 141.628 L 219.392 141.628 L 219.392 143.041 L 212.543 143.041 L 212.543 141.628 " fill="#000000"/>
<path class="atom-16" d="M 225.483 135.238 Q 226.577 135.238, 227.442 135.715 Q 228.307 136.191, 228.784 137.056 Q 229.26 137.921, 229.26 139.016 Q 229.26 140.234, 228.713 141.187 Q 228.183 142.123, 227.23 142.652 Q 226.277 143.182, 225.059 143.182 Q 222.835 143.182, 221.705 141.681 Q 220.593 140.163, 220.593 137.162 Q 220.593 133.844, 221.97 132.131 Q 223.364 130.401, 226.03 130.401 Q 226.806 130.401, 227.46 130.578 Q 228.13 130.754, 228.766 131.125 L 228.077 132.308 Q 227.16 131.814, 226.047 131.814 Q 224.282 131.814, 223.382 132.961 Q 222.482 134.091, 222.376 136.439 Q 223.011 135.856, 223.806 135.556 Q 224.618 135.238, 225.483 135.238 M 225.076 141.734 Q 225.747 141.734, 226.295 141.381 Q 226.859 141.028, 227.177 140.41 Q 227.495 139.793, 227.495 139.033 Q 227.495 137.921, 226.877 137.286 Q 226.259 136.65, 225.165 136.65 Q 224.406 136.65, 223.647 136.968 Q 222.905 137.268, 222.376 137.798 Q 222.446 139.863, 223.099 140.799 Q 223.753 141.734, 225.076 141.734 " fill="#000000"/>
<path class="atom-17" d="M 108.516 99.4768 L 110.211 99.4768 L 110.211 104.79 L 116.601 104.79 L 116.601 99.4768 L 118.296 99.4768 L 118.296 111.975 L 116.601 111.975 L 116.601 106.202 L 110.211 106.202 L 110.211 111.975 L 108.516 111.975 L 108.516 99.4768 " fill="#000000"/>
<path class="atom-17" d="M 119.937 110.563 L 122.674 110.563 L 122.674 101.224 L 119.655 102.16 L 119.249 101.119 L 123.08 99.4062 L 124.333 99.6181 L 124.333 110.563 L 126.787 110.563 L 126.787 111.975 L 119.937 111.975 L 119.937 110.563 " fill="#000000"/>
<path class="atom-17" d="M 133.654 100.889 L 127.104 100.889 L 127.104 99.4768 L 135.401 99.4768 L 135.401 100.73 L 130.352 111.975 L 128.658 111.975 L 133.654 100.889 " fill="#000000"/>
<path class="atom-18" d="M 119.32 19.0397 L 121.014 19.0397 L 121.014 24.3531 L 127.404 24.3531 L 127.404 19.0397 L 129.099 19.0397 L 129.099 31.5377 L 127.404 31.5377 L 127.404 25.7653 L 121.014 25.7653 L 121.014 31.5377 L 119.32 31.5377 L 119.32 19.0397 " fill="#000000"/>
<path class="atom-18" d="M 130.741 30.1255 L 133.477 30.1255 L 133.477 20.7873 L 130.458 21.7229 L 130.052 20.6814 L 133.883 18.9691 L 135.136 19.1809 L 135.136 30.1255 L 137.59 30.1255 L 137.59 31.5377 L 130.741 31.5377 L 130.741 30.1255 " fill="#000000"/>
<path class="atom-18" d="M 145.057 24.918 Q 146.205 25.4123, 146.858 26.1537 Q 147.511 26.8775, 147.511 28.1131 Q 147.511 29.1723, 146.964 30.002 Q 146.416 30.814, 145.428 31.273 Q 144.457 31.7143, 143.168 31.7143 Q 141.085 31.7143, 139.885 30.761 Q 138.685 29.7901, 138.685 28.1131 Q 138.685 27.0893, 139.214 26.3302 Q 139.744 25.5535, 140.838 24.971 Q 140.026 24.512, 139.585 23.8412 Q 139.143 23.1527, 139.143 22.0936 Q 139.143 20.6284, 140.203 19.7634 Q 141.279 18.8985, 143.098 18.8985 Q 144.916 18.8985, 145.975 19.7634 Q 147.052 20.6284, 147.052 22.0936 Q 147.052 23.0115, 146.54 23.7 Q 146.046 24.3708, 145.057 24.918 M 143.098 20.2224 Q 142.056 20.2224, 141.474 20.7167 Q 140.909 21.211, 140.909 22.0936 Q 140.909 22.7467, 141.297 23.1881 Q 141.685 23.6117, 142.233 23.8589 Q 142.798 24.106, 143.874 24.4767 Q 144.633 23.9471, 144.951 23.3822 Q 145.287 22.8173, 145.287 22.0936 Q 145.287 21.211, 144.704 20.7167 Q 144.139 20.2224, 143.098 20.2224 M 143.168 30.3903 Q 144.333 30.3903, 145.039 29.7725 Q 145.746 29.137, 145.746 28.0955 Q 145.746 27.4247, 145.375 27.001 Q 145.004 26.5774, 144.439 26.3302 Q 143.892 26.0831, 142.903 25.7653 L 142.109 25.5005 Q 141.226 26.0301, 140.838 26.6656 Q 140.45 27.2835, 140.45 28.0955 Q 140.45 29.137, 141.191 29.7725 Q 141.933 30.3903, 143.168 30.3903 " fill="#000000"/>
</svg>